<svg width="16" height="16" viewBox="0 0 16 16" fill="black" xmlns="http://www.w3.org/2000/svg">
<g clip-path="url(#clip0_1_1244)">
<path d="M3.75 0.25C3.19772 0.25 2.75 0.697715 2.75 1.25V2H1C0.447716 2 0 2.44772 0 3C0 3.55228 0.447716 4 1 4H2.75V4.75C2.75 5.30228 3.19772 5.75 3.75 5.75C4.30228 5.75 4.75 5.30228 4.75 4.75V1.25C4.75 0.697715 4.30228 0.25 3.75 0.25Z" fill="#4D5061"/>
<path d="M15 2H6.25V4H15C15.5523 4 16 3.55228 16 3C16 2.44772 15.5523 2 15 2Z" fill="#4D5061"/>
<path d="M11.75 5.25C11.1977 5.25 10.75 5.69772 10.75 6.25V9.75C10.75 10.3023 11.1977 10.75 11.75 10.75C12.3023 10.75 12.75 10.3023 12.75 9.75V9H15C15.5523 9 16 8.55229 16 8C16 7.44772 15.5523 7 15 7H12.75V6.25C12.75 5.69772 12.3023 5.25 11.75 5.25Z" fill="#4D5061"/>
<path d="M1 7C0.447716 7 0 7.44772 0 8C0 8.55229 0.447716 9 1 9H9.25V7H1Z" fill="#4D5061"/>
<path d="M8.25 10.25C7.69772 10.25 7.25 10.6977 7.25 11.25V12H1C0.447716 12 0 12.4477 0 13C0 13.5523 0.447716 14 1 14H7.25V14.75C7.25 15.3023 7.69772 15.75 8.25 15.75C8.80228 15.75 9.25 15.3023 9.25 14.75V11.25C9.25 10.6977 8.80228 10.25 8.25 10.25Z" fill="#4D5061"/>
<path d="M15 12H10.75V14H15C15.5523 14 16 13.5523 16 13C16 12.4477 15.5523 12 15 12Z" fill="#4D5061"/>
</g>
<defs>
<clipPath id="clip0_1_1244">
<rect width="16" height="16" fill="white"/>
</clipPath>
</defs>
</svg>
