<svg xmlns="http://www.w3.org/2000/svg" xmlns:xlink="http://www.w3.org/1999/xlink" width="500" zoomAndPan="magnify" viewBox="0 0 375 374.999991" height="500" preserveAspectRatio="xMidYMid meet" version="1.0"><defs><g/><clipPath id="2f48d0fdf0"><path d="M 101 144 L 149.144531 144 L 149.144531 174.730469 L 101 174.730469 Z M 101 144 " clip-rule="nonzero"/></clipPath><clipPath id="85b64298fe"><path d="M 109 116.230469 L 147 116.230469 L 147 164 L 109 164 Z M 109 116.230469 " clip-rule="nonzero"/></clipPath><clipPath id="de1de671fe"><path d="M 77.144531 141 L 120 141 L 120 171 L 77.144531 171 Z M 77.144531 141 " clip-rule="nonzero"/></clipPath></defs><g fill="#ffffff" fill-opacity="1"><g transform="translate(115.107301, 211.874986)"><g><path d="M 44.765625 -1.800781 C 40.578125 -0.753906 50.289062 -22.324219 52.4375 -33.660156 C 54.472656 -44.996094 46.277344 -42.554688 39.472656 -31.800781 C 35.578125 -25.871094 32.03125 -17.613281 30.289062 -15.636719 C 29.53125 -18.777344 38.660156 -39.589844 39.996094 -51.277344 C 40.871094 -59.878906 34.824219 -60.34375 25.695312 -47.265625 C 15.695312 -32.964844 5.8125 -8.71875 2.09375 -2.558594 C 2.382812 -7.675781 12.558594 -37.148438 15.695312 -40.578125 C 16.105469 -40.695312 16.511719 -40.984375 16.625 -41.394531 C 17.035156 -42.382812 15.40625 -42.789062 14.242188 -40.925781 C 10.117188 -34.300781 0.988281 -9.882812 0.289062 -2.5 C 0 0.582031 1.742188 1.453125 4.359375 -3.371094 C 8.777344 -11.511719 18.136719 -34.066406 26.917969 -46.800781 C 33.601562 -56.625 39.707031 -59.472656 38.484375 -50.984375 C 37.148438 -41.394531 28.601562 -20.40625 28.835938 -15.464844 C 28.953125 -13.894531 30.113281 -13.546875 31.683594 -15.582031 C 33.429688 -17.90625 37.207031 -25.636719 40.925781 -31.335938 C 48.195312 -42.382812 52.671875 -41.683594 50.984375 -33.484375 C 48.890625 -23.601562 37.089844 1.335938 44.300781 0 C 45.578125 -0.234375 46.042969 -2.09375 44.765625 -1.800781 Z M 44.765625 -1.800781 "/></g></g><g transform="translate(172.894467, 211.874986)"><g><path d="M 18.488281 -25.8125 C 15.058594 -22.441406 10.871094 -18.371094 6.742188 -16.160156 C 0.523438 -12.789062 -4.359375 -14.941406 -1.105469 -21.917969 C 1.222656 -21.976562 3.894531 -22.5 6.046875 -24.125 C 9.707031 -26.859375 9.011719 -30.636719 5.464844 -29.648438 C 2.5 -28.835938 -1.164062 -25.695312 -2.964844 -21.101562 C -6.046875 -13.253906 -0.234375 -10.640625 7.152344 -14.882812 C 11.628906 -17.382812 15.636719 -21.625 19.070312 -25.40625 C 19.535156 -25.871094 18.953125 -26.277344 18.488281 -25.8125 Z M 5.347656 -28.195312 C 7.324219 -28.660156 7.207031 -26.683594 5.289062 -25.289062 C 3.71875 -24.066406 1.570312 -23.71875 -0.117188 -23.660156 C 1.570312 -26.21875 3.894531 -27.789062 5.347656 -28.195312 Z M 5.347656 -28.195312 "/></g></g><g transform="translate(191.09103, 211.874986)"><g><path d="M 16.917969 -25.988281 C 14.648438 -23.078125 11.511719 -19.359375 8.605469 -16.976562 C 2.90625 -12.382812 -1.742188 -14.070312 0.8125 -24.476562 C 1.570312 -24.941406 6.046875 -28.835938 9.941406 -33.660156 C 25.054688 -52.613281 14.242188 -56.277344 3.664062 -36.21875 C 1.859375 -32.730469 0.347656 -29.125 -0.640625 -25.578125 C -4.476562 -11.628906 2.617188 -10.171875 9.359375 -16.105469 C 12.382812 -18.777344 15.289062 -22.441406 17.613281 -25.636719 C 18.023438 -26.160156 17.324219 -26.511719 16.917969 -25.988281 Z M 5.289062 -35.984375 C 14.59375 -54.53125 22.207031 -50.347656 8.894531 -34.242188 C 6.6875 -31.566406 4.1875 -29.066406 1.511719 -26.859375 C 2.5 -29.882812 3.777344 -32.964844 5.289062 -35.984375 Z M 5.289062 -35.984375 "/></g></g><g transform="translate(207.659785, 211.874986)"><g><path d="M 15.753906 -25.8125 C 12.964844 -22.613281 9.535156 -18.488281 6.046875 -16.21875 C 2.382812 -13.894531 -1.511719 -13.777344 -1.335938 -18.082031 C -1.277344 -20.582031 -0.175781 -22.847656 1.511719 -25.347656 C 2.324219 -26.453125 0.8125 -27.035156 0.0585938 -25.929688 C -1.628906 -23.488281 -2.847656 -20.40625 -3.023438 -17.613281 C -3.253906 -11.917969 1.6875 -11.628906 6.628906 -15 C 10.40625 -17.558594 13.71875 -21.917969 16.453125 -25.40625 C 16.859375 -25.929688 16.21875 -26.277344 15.753906 -25.8125 Z M 3.488281 -29.242188 C 3.488281 -29.242188 3.488281 -29.242188 3.546875 -29.242188 C 3.488281 -29.242188 3.488281 -29.242188 3.488281 -29.242188 Z M 3.664062 -29.359375 C 3.71875 -29.417969 4.652344 -29.707031 4.710938 -30.636719 C 4.710938 -31.21875 4.1875 -31.507812 3.546875 -31.335938 C 2.617188 -30.988281 2.152344 -30.171875 1.800781 -29.300781 C 1.628906 -28.777344 1.453125 -28.253906 1.453125 -27.730469 C 1.453125 -27.265625 2.09375 -27.324219 2.324219 -27.789062 C 2.617188 -28.195312 2.964844 -28.835938 3.664062 -29.359375 Z M 3.664062 -29.359375 "/></g></g><g transform="translate(223.182092, 211.874986)"><g><path d="M 20.753906 -25.871094 C 15.8125 -21.742188 11.976562 -19.242188 6.277344 -18.835938 C 6.800781 -19.882812 7.152344 -20.929688 7.441406 -21.976562 C 9.707031 -32.382812 -2.675781 -27.964844 -2.847656 -21.101562 C -3.429688 -19.941406 -3.835938 -18.71875 -4.011719 -17.558594 C -4.765625 -11.683594 1.453125 -11.21875 5.347656 -17.09375 C 11.570312 -17.613281 15.988281 -20.289062 21.277344 -25.347656 C 21.742188 -25.8125 21.277344 -26.277344 20.753906 -25.871094 Z M 6.046875 -21.800781 C 5.8125 -20.8125 5.464844 -19.765625 4.941406 -18.777344 C 2.382812 -18.777344 -0.699219 -19.125 -0.871094 -21.511719 C -0.289062 -22.613281 0.753906 -23.953125 1.917969 -24.535156 C 2.675781 -24.941406 2.964844 -25.8125 2.382812 -26.101562 C 4.652344 -27.089844 6.800781 -25.695312 6.046875 -21.800781 Z M -1.976562 -18.71875 C -0.753906 -17.324219 1.570312 -16.976562 3.835938 -17.035156 C 0.699219 -12.90625 -3.023438 -14.242188 -1.976562 -18.71875 Z M -1.976562 -18.71875 "/></g></g><g transform="translate(243.239006, 211.874986)"><g><path d="M 21.101562 -25.8125 C 18.429688 -23.136719 15.347656 -20.113281 12.324219 -17.847656 C 6.859375 -13.835938 1.453125 -12.964844 2.441406 -18.429688 C 2.789062 -20.171875 3.71875 -22.441406 5.347656 -24.941406 C 6.277344 -26.160156 5.988281 -26.683594 4.765625 -26.511719 C 4.1875 -26.394531 3.371094 -26.21875 2.558594 -26.160156 C 0.753906 -26.042969 0.929688 -26.683594 2.152344 -28.078125 C 3.199219 -29.183594 1.6875 -29.765625 0.8125 -28.777344 C -1.511719 -25.988281 -1.222656 -24.242188 2.035156 -24.476562 C 2.617188 -24.535156 3.023438 -24.589844 3.488281 -24.648438 C 2.265625 -22.613281 1.277344 -20.347656 0.8125 -18.195312 C -0.523438 -11.105469 6.105469 -11.453125 13.023438 -16.859375 C 16.394531 -19.535156 19.125 -22.558594 21.683594 -25.40625 C 22.148438 -25.871094 21.570312 -26.277344 21.101562 -25.8125 Z M 21.101562 -25.8125 "/></g></g><g transform="translate(263.87728, 211.874986)"><g><path d="M 24.066406 -25.8125 C 21.570312 -23.136719 17.847656 -19.070312 13.546875 -16.394531 C 9.417969 -13.777344 5.582031 -13.605469 6.511719 -18.3125 C 6.976562 -20.40625 7.90625 -22.441406 8.371094 -24.300781 C 9.011719 -26.859375 7.441406 -27.148438 5.464844 -24.648438 C 4.242188 -22.964844 3.199219 -21.101562 1.800781 -18.953125 C -0.699219 -15.289062 -3.429688 -12.789062 -3.140625 -16.21875 C -2.847656 -19.765625 0.988281 -27.671875 3.082031 -24.882812 C 3.664062 -24.125 5.347656 -25.464844 4.765625 -26.21875 C 1.394531 -30.695312 -4.300781 -20.582031 -5 -15.8125 C -5.464844 -11.628906 -1.335938 -11.21875 3.082031 -18.601562 C 4.1875 -20.464844 5.582031 -23.078125 6.394531 -24.300781 C 7.382812 -25.871094 7.675781 -25.289062 7.265625 -24.183594 C 6.6875 -22.730469 5.523438 -20.347656 4.941406 -18.082031 C 3.3125 -11.976562 8.488281 -11.453125 14.128906 -15.171875 C 17.964844 -17.671875 21.859375 -21.859375 24.707031 -25.40625 C 25.113281 -25.929688 24.535156 -26.277344 24.066406 -25.8125 Z M 24.066406 -25.8125 "/></g></g></g><g clip-path="url(#2f48d0fdf0)"><path fill="#ffffff" d="M 149.125 144.605469 C 148.902344 145.191406 148.660156 145.769531 148.421875 146.347656 C 148.167969 146.921875 147.910156 147.492188 147.644531 148.058594 C 147.375 148.625 147.085938 149.179688 146.800781 149.742188 C 146.664062 150.023438 146.503906 150.296875 146.355469 150.570312 L 145.898438 151.398438 C 144.648438 153.59375 143.246094 155.691406 141.691406 157.6875 C 138.578125 161.679688 134.839844 165.253906 130.550781 168.070312 C 128.398438 169.488281 126.128906 170.6875 123.742188 171.660156 L 122.84375 172.007812 C 122.542969 172.121094 122.246094 172.242188 121.941406 172.34375 C 121.632812 172.445312 121.332031 172.550781 121.027344 172.648438 C 120.722656 172.746094 120.417969 172.851562 120.105469 172.929688 L 119.179688 173.1875 L 118.714844 173.316406 C 118.558594 173.359375 118.402344 173.390625 118.246094 173.425781 L 117.308594 173.632812 L 116.839844 173.734375 L 116.367188 173.816406 C 111.328125 174.730469 106.136719 174.558594 101.292969 173.285156 C 101.917969 173.269531 102.542969 173.265625 103.167969 173.265625 C 103.324219 173.265625 103.480469 173.257812 103.636719 173.25 L 104.105469 173.230469 C 104.417969 173.21875 104.726562 173.210938 105.035156 173.199219 C 105.34375 173.1875 105.648438 173.160156 105.957031 173.144531 L 106.878906 173.078125 C 107.035156 173.066406 107.183594 173.0625 107.335938 173.042969 L 107.796875 172.996094 L 108.707031 172.898438 C 111.125 172.621094 113.5 172.160156 115.84375 171.515625 C 120.5 170.234375 124.886719 168.195312 128.902344 165.5625 C 132.917969 162.929688 136.574219 159.71875 139.902344 156.160156 C 141.570312 154.382812 143.15625 152.511719 144.683594 150.578125 L 145.816406 149.117188 L 146.929688 147.632812 C 147.289062 147.128906 147.664062 146.628906 148.03125 146.125 C 148.398438 145.625 148.75 145.109375 149.125 144.605469 Z M 149.125 144.605469 " fill-opacity="1" fill-rule="nonzero"/></g><g clip-path="url(#85b64298fe)"><path fill="#ffffff" d="M 127.78125 162.605469 C 128.761719 161.859375 129.734375 161.121094 130.644531 160.304688 C 131.574219 159.515625 132.441406 158.660156 133.300781 157.808594 C 134.988281 156.066406 136.523438 154.199219 137.902344 152.207031 C 138.574219 151.207031 139.234375 150.203125 139.8125 149.152344 C 140.410156 148.113281 140.941406 147.039062 141.449219 145.957031 L 141.804688 145.132812 L 141.980469 144.722656 C 142.039062 144.585938 142.089844 144.453125 142.140625 144.316406 C 142.195312 144.179688 142.25 144.042969 142.296875 143.90625 L 142.441406 143.492188 C 142.542969 143.21875 142.625 142.9375 142.710938 142.660156 C 143.050781 141.535156 143.308594 140.390625 143.488281 139.230469 C 143.671875 138.0625 143.789062 136.886719 143.847656 135.707031 C 143.90625 134.523438 143.921875 133.332031 143.890625 132.136719 C 143.824219 129.746094 143.617188 127.34375 143.335938 124.9375 C 143.195312 123.730469 143.046875 122.523438 142.890625 121.3125 L 142.65625 119.492188 L 142.597656 119.035156 L 142.566406 118.816406 C 142.558594 118.761719 142.554688 118.71875 142.546875 118.699219 C 142.542969 118.679688 142.539062 118.675781 142.546875 118.699219 C 142.566406 118.753906 142.597656 118.808594 142.632812 118.855469 C 142.699219 118.945312 142.777344 119.019531 142.875 119.078125 C 142.953125 119.128906 143.042969 119.164062 143.132812 119.1875 C 143.257812 119.210938 143.242188 119.191406 143.152344 119.207031 L 142.730469 119.265625 L 141.824219 119.394531 C 141.21875 119.480469 140.617188 119.570312 140.019531 119.660156 C 138.820312 119.84375 137.625 120.042969 136.441406 120.265625 C 134.074219 120.699219 131.742188 121.234375 129.488281 121.953125 C 128.921875 122.128906 128.363281 122.320312 127.8125 122.523438 L 126.996094 122.835938 C 126.855469 122.886719 126.722656 122.941406 126.589844 123 L 126.1875 123.175781 L 125.785156 123.347656 C 125.652344 123.40625 125.523438 123.476562 125.394531 123.539062 C 125.132812 123.664062 124.871094 123.789062 124.609375 123.917969 C 124.097656 124.195312 123.578125 124.460938 123.085938 124.765625 L 122.710938 124.988281 C 122.582031 125.058594 122.464844 125.144531 122.34375 125.222656 C 122.101562 125.378906 121.855469 125.535156 121.613281 125.699219 L 120.910156 126.207031 L 120.734375 126.332031 L 120.5625 126.46875 L 120.222656 126.738281 L 119.878906 127.011719 C 119.765625 127.101562 119.660156 127.203125 119.550781 127.296875 L 119.222656 127.582031 C 119.117188 127.679688 119.003906 127.769531 118.898438 127.871094 L 118.273438 128.472656 C 118.222656 128.523438 118.167969 128.570312 118.117188 128.621094 L 117.96875 128.777344 L 117.671875 129.09375 L 117.371094 129.410156 C 117.273438 129.519531 117.183594 129.632812 117.089844 129.742188 C 116.90625 129.964844 116.710938 130.179688 116.53125 130.40625 L 116.007812 131.101562 C 115.960938 131.160156 115.917969 131.214844 115.875 131.273438 L 115.753906 131.453125 L 115.507812 131.8125 L 115.257812 132.171875 C 115.175781 132.289062 115.101562 132.417969 115.023438 132.539062 C 114.871094 132.789062 114.71875 133.03125 114.570312 133.28125 C 114.292969 133.796875 114 134.296875 113.761719 134.828125 C 113.257812 135.882812 112.84375 136.96875 112.511719 138.085938 C 112.183594 139.210938 111.9375 140.359375 111.769531 141.519531 C 111.609375 142.695312 111.515625 143.878906 111.5 145.066406 C 111.476562 146.257812 111.523438 147.457031 111.621094 148.65625 C 111.808594 151.058594 112.203125 153.460938 112.679688 155.855469 C 112.921875 157.050781 113.183594 158.246094 113.457031 159.441406 L 113.867188 161.238281 C 114.007812 161.832031 114.144531 162.433594 114.28125 163.03125 L 113.957031 162.175781 L 113.640625 161.308594 L 113.015625 159.574219 C 112.613281 158.414062 112.222656 157.246094 111.867188 156.070312 C 111.144531 153.710938 110.542969 151.304688 110.152344 148.839844 C 109.957031 147.601562 109.824219 146.355469 109.757812 145.105469 C 109.691406 143.839844 109.707031 142.578125 109.804688 141.3125 C 109.90625 140.039062 110.105469 138.777344 110.402344 137.53125 C 110.699219 136.277344 111.097656 135.054688 111.601562 133.867188 C 111.84375 133.269531 112.140625 132.695312 112.421875 132.117188 C 112.574219 131.835938 112.734375 131.554688 112.890625 131.273438 C 112.96875 131.132812 113.046875 130.988281 113.128906 130.851562 L 113.644531 130.03125 L 113.777344 129.824219 L 113.917969 129.625 L 114.480469 128.835938 C 114.671875 128.574219 114.878906 128.324219 115.078125 128.070312 C 115.179688 127.945312 115.277344 127.816406 115.378906 127.691406 L 115.699219 127.328125 L 116.023438 126.964844 L 116.183594 126.78125 C 116.238281 126.722656 116.292969 126.667969 116.351562 126.609375 L 117.027344 125.914062 C 117.257812 125.6875 117.496094 125.46875 117.734375 125.25 C 117.855469 125.140625 117.96875 125.027344 118.09375 124.925781 L 118.464844 124.613281 L 119.027344 124.144531 L 119.21875 123.996094 L 119.992188 123.417969 C 120.253906 123.230469 120.523438 123.050781 120.789062 122.871094 C 120.921875 122.78125 121.050781 122.683594 121.1875 122.601562 L 121.597656 122.34375 L 122.011719 122.089844 L 122.214844 121.960938 L 123.269531 121.375 C 123.554688 121.226562 123.84375 121.085938 124.128906 120.941406 C 124.273438 120.867188 124.417969 120.792969 124.5625 120.726562 L 125 120.527344 L 125.441406 120.328125 C 125.585938 120.261719 125.734375 120.199219 125.882812 120.140625 L 126.777344 119.78125 C 127.375 119.550781 127.972656 119.339844 128.574219 119.140625 C 130.988281 118.351562 133.441406 117.78125 135.894531 117.320312 C 137.125 117.097656 138.351562 116.902344 139.574219 116.71875 C 140.1875 116.628906 140.800781 116.542969 141.410156 116.457031 L 142.324219 116.332031 L 142.554688 116.300781 L 142.667969 116.285156 L 142.8125 116.269531 C 143.128906 116.226562 143.441406 116.238281 143.75 116.296875 C 143.996094 116.351562 144.226562 116.441406 144.4375 116.574219 C 144.664062 116.714844 144.855469 116.894531 145.015625 117.109375 C 145.136719 117.277344 145.238281 117.460938 145.308594 117.660156 C 145.363281 117.804688 145.40625 117.953125 145.4375 118.105469 C 145.460938 118.234375 145.476562 118.34375 145.488281 118.441406 L 145.515625 118.679688 L 145.570312 119.132812 L 145.78125 120.960938 C 145.921875 122.183594 146.058594 123.410156 146.171875 124.640625 C 146.394531 127.109375 146.5625 129.597656 146.539062 132.109375 C 146.527344 133.363281 146.476562 134.625 146.359375 135.882812 C 146.246094 137.148438 146.0625 138.402344 145.8125 139.648438 C 145.558594 140.902344 145.214844 142.132812 144.777344 143.339844 C 144.667969 143.640625 144.5625 143.941406 144.433594 144.238281 L 144.25 144.683594 C 144.1875 144.828125 144.121094 144.972656 144.054688 145.121094 C 143.988281 145.265625 143.925781 145.414062 143.855469 145.558594 L 143.640625 145.976562 L 143.214844 146.820312 C 142.03125 149.035156 140.65625 151.125 139.082031 153.082031 C 137.507812 155.019531 135.773438 156.792969 133.871094 158.414062 C 131.976562 160.007812 129.949219 161.40625 127.78125 162.605469 Z M 127.78125 162.605469 " fill-opacity="1" fill-rule="nonzero"/></g><g clip-path="url(#de1de671fe)"><path fill="#ffffff" d="M 111.273438 158.058594 C 111.191406 157.835938 111.109375 157.609375 111.023438 157.386719 C 110.9375 157.164062 110.855469 156.9375 110.769531 156.714844 C 110.59375 156.273438 110.410156 155.832031 110.21875 155.394531 C 109.835938 154.523438 109.425781 153.671875 108.980469 152.835938 C 108.757812 152.417969 108.523438 152.011719 108.285156 151.605469 C 108.050781 151.199219 107.796875 150.804688 107.535156 150.417969 C 107.023438 149.644531 106.460938 148.90625 105.851562 148.203125 C 104.648438 146.816406 103.25 145.636719 101.667969 144.894531 C 100.882812 144.523438 100.066406 144.261719 99.210938 144.105469 C 98.359375 143.957031 97.503906 143.914062 96.644531 143.980469 C 95.769531 144.054688 94.910156 144.210938 94.066406 144.453125 C 93.199219 144.695312 92.355469 144.992188 91.527344 145.347656 C 90.691406 145.699219 89.871094 146.113281 89.046875 146.539062 C 88.226562 146.964844 87.417969 147.425781 86.609375 147.90625 C 85.800781 148.382812 84.988281 148.875 84.171875 149.367188 C 83.355469 149.863281 82.535156 150.367188 81.695312 150.859375 C 81.488281 150.984375 81.273438 151.105469 81.058594 151.222656 C 80.847656 151.34375 80.632812 151.464844 80.414062 151.582031 L 80.085938 151.761719 L 79.753906 151.933594 L 79.421875 152.109375 C 79.484375 152.078125 79.542969 152.042969 79.597656 152.003906 C 79.660156 151.960938 79.714844 151.914062 79.765625 151.859375 C 79.816406 151.8125 79.863281 151.761719 79.902344 151.707031 C 79.9375 151.65625 79.972656 151.601562 80 151.550781 C 80.027344 151.503906 80.046875 151.460938 80.066406 151.414062 C 80.082031 151.367188 80.101562 151.320312 80.105469 151.296875 C 80.117188 151.265625 80.125 151.238281 80.128906 151.207031 C 80.136719 151.179688 80.140625 151.140625 80.144531 151.121094 C 80.148438 151.089844 80.152344 151.054688 80.152344 151.019531 L 80.152344 150.953125 C 80.152344 150.933594 80.148438 150.910156 80.148438 150.886719 C 80.148438 150.878906 80.148438 150.882812 80.148438 150.878906 C 80.148438 150.882812 80.152344 150.890625 80.152344 150.898438 L 80.179688 150.980469 C 80.203125 151.046875 80.230469 151.128906 80.269531 151.214844 C 80.339844 151.386719 80.429688 151.578125 80.527344 151.773438 C 80.71875 152.164062 80.9375 152.558594 81.164062 152.957031 C 81.617188 153.757812 82.101562 154.5625 82.601562 155.355469 C 82.851562 155.75 83.101562 156.148438 83.359375 156.535156 L 83.746094 157.117188 L 83.9375 157.398438 L 84.023438 157.523438 L 84.054688 157.566406 L 84.109375 157.632812 C 85.203125 159.078125 86.433594 160.390625 87.808594 161.574219 C 89.183594 162.765625 90.667969 163.804688 92.261719 164.6875 L 92.863281 165.011719 L 93.164062 165.171875 L 93.472656 165.320312 L 94.089844 165.621094 C 94.191406 165.671875 94.296875 165.714844 94.402344 165.761719 L 94.714844 165.894531 L 95.339844 166.171875 L 95.980469 166.417969 C 96.40625 166.59375 96.839844 166.730469 97.277344 166.878906 C 97.386719 166.917969 97.496094 166.957031 97.605469 166.988281 L 97.9375 167.085938 L 98.597656 167.285156 C 98.820312 167.351562 99.042969 167.402344 99.265625 167.460938 C 99.488281 167.519531 99.710938 167.578125 99.9375 167.632812 L 100.613281 167.777344 C 100.839844 167.828125 101.066406 167.878906 101.292969 167.914062 C 101.75 167.992188 102.203125 168.085938 102.667969 168.144531 L 103.355469 168.242188 C 103.585938 168.273438 103.816406 168.292969 104.046875 168.320312 C 104.28125 168.347656 104.511719 168.371094 104.742188 168.390625 L 105.441406 168.4375 C 105.90625 168.480469 106.371094 168.480469 106.839844 168.5 C 107.074219 168.511719 107.308594 168.511719 107.542969 168.507812 L 108.246094 168.507812 C 108.480469 168.507812 108.714844 168.492188 108.949219 168.488281 C 109.183594 168.480469 109.417969 168.472656 109.652344 168.460938 L 110.355469 168.410156 C 110.589844 168.394531 110.824219 168.382812 111.058594 168.355469 L 111.761719 168.28125 C 111.878906 168.269531 111.996094 168.261719 112.113281 168.242188 L 112.464844 168.195312 L 113.167969 168.097656 C 113.402344 168.066406 113.636719 168.019531 113.867188 167.984375 C 114.097656 167.945312 114.335938 167.90625 114.570312 167.863281 L 115.265625 167.71875 C 115.734375 167.628906 116.191406 167.507812 116.65625 167.398438 L 117.003906 167.316406 L 117.347656 167.222656 L 118.039062 167.03125 C 118.273438 166.972656 118.496094 166.890625 118.722656 166.824219 L 119.414062 166.613281 C 118.984375 166.828125 118.558594 167.050781 118.121094 167.25 L 117.460938 167.546875 L 117.132812 167.695312 L 116.796875 167.832031 C 116.347656 168.007812 115.902344 168.191406 115.441406 168.34375 L 114.757812 168.578125 C 114.527344 168.65625 114.292969 168.722656 114.0625 168.792969 C 112.191406 169.359375 110.289062 169.753906 108.347656 169.976562 C 107.375 170.078125 106.394531 170.152344 105.414062 170.171875 L 104.675781 170.1875 C 104.429688 170.1875 104.183594 170.179688 103.9375 170.175781 C 103.691406 170.171875 103.445312 170.164062 103.199219 170.152344 L 102.460938 170.105469 C 100.480469 169.976562 98.53125 169.65625 96.613281 169.144531 C 96.132812 169.007812 95.652344 168.882812 95.179688 168.722656 L 94.46875 168.488281 L 93.765625 168.230469 L 93.417969 168.097656 C 93.300781 168.054688 93.183594 168.007812 93.070312 167.957031 L 92.378906 167.664062 L 92.035156 167.515625 L 91.695312 167.351562 L 91.019531 167.027344 L 90.851562 166.949219 L 90.6875 166.859375 L 90.355469 166.679688 L 89.695312 166.324219 L 89.050781 165.933594 C 88.835938 165.800781 88.617188 165.675781 88.410156 165.535156 L 87.785156 165.113281 C 87.683594 165.042969 87.574219 164.972656 87.472656 164.902344 L 87.171875 164.679688 L 86.566406 164.230469 C 86.460938 164.15625 86.363281 164.074219 86.269531 163.996094 L 85.976562 163.753906 C 84.410156 162.472656 83.003906 161.03125 81.753906 159.4375 L 81.695312 159.359375 L 81.617188 159.257812 L 81.496094 159.101562 L 81.28125 158.789062 L 80.871094 158.175781 C 80.601562 157.769531 80.335938 157.363281 80.074219 156.953125 C 79.550781 156.128906 79.042969 155.296875 78.550781 154.4375 C 78.308594 154.003906 78.070312 153.5625 77.839844 153.09375 C 77.722656 152.859375 77.613281 152.617188 77.5 152.351562 C 77.445312 152.214844 77.394531 152.074219 77.339844 151.917969 L 77.300781 151.792969 L 77.261719 151.65625 L 77.226562 151.5 C 77.214844 151.4375 77.203125 151.382812 77.191406 151.3125 C 77.179688 151.234375 77.171875 151.152344 77.167969 151.070312 L 77.167969 150.996094 C 77.167969 150.972656 77.167969 150.953125 77.167969 150.917969 C 77.167969 150.855469 77.175781 150.789062 77.183594 150.722656 C 77.1875 150.691406 77.199219 150.636719 77.207031 150.597656 C 77.214844 150.554688 77.226562 150.507812 77.242188 150.464844 C 77.253906 150.410156 77.273438 150.355469 77.296875 150.300781 C 77.320312 150.242188 77.347656 150.183594 77.378906 150.128906 C 77.414062 150.058594 77.457031 149.996094 77.5 149.933594 C 77.550781 149.867188 77.605469 149.804688 77.664062 149.746094 C 77.730469 149.679688 77.796875 149.625 77.871094 149.570312 C 77.941406 149.523438 78.011719 149.480469 78.082031 149.441406 L 78.386719 149.285156 L 78.695312 149.128906 L 79 148.964844 C 79.40625 148.75 79.8125 148.519531 80.222656 148.292969 C 81.855469 147.375 83.5 146.375 85.199219 145.4375 C 86.898438 144.5 88.664062 143.601562 90.546875 142.898438 C 91.496094 142.539062 92.46875 142.242188 93.460938 142.015625 C 94.472656 141.789062 95.5 141.660156 96.542969 141.632812 C 97.601562 141.609375 98.644531 141.730469 99.675781 141.984375 C 100.699219 142.242188 101.667969 142.632812 102.585938 143.15625 C 103.484375 143.671875 104.304688 144.289062 105.050781 145.011719 C 105.417969 145.363281 105.757812 145.734375 106.089844 146.113281 C 106.417969 146.496094 106.722656 146.890625 107.007812 147.296875 C 108.136719 148.914062 109.046875 150.644531 109.738281 152.492188 C 110.429688 154.296875 110.941406 156.152344 111.273438 158.058594 Z M 111.273438 158.058594 " fill-opacity="1" fill-rule="nonzero"/></g><g fill="#ffffff" fill-opacity="1"><g transform="translate(151.311733, 225.869649)"><g><path d="M 1.15625 -0.390625 C 1.175781 -0.722656 1.1875 -1.015625 1.1875 -1.265625 C 1.1875 -1.523438 1.1875 -1.773438 1.1875 -2.015625 C 1.1875 -2.265625 1.1875 -2.523438 1.1875 -2.796875 L 1.1875 -5.3125 C 1.1875 -5.65625 1.179688 -6.015625 1.171875 -6.390625 C 1.171875 -6.773438 1.164062 -7.144531 1.15625 -7.5 C 1.15625 -7.863281 1.148438 -8.171875 1.140625 -8.421875 C 1.140625 -8.679688 1.140625 -8.863281 1.140625 -8.96875 L 0.0625 -9.09375 L 0.03125 -9.5625 L 2.09375 -10.171875 L 2.375 -9.96875 C 2.363281 -9.550781 2.351562 -9.132812 2.34375 -8.71875 C 2.332031 -8.3125 2.320312 -7.835938 2.3125 -7.296875 C 2.300781 -6.765625 2.289062 -6.101562 2.28125 -5.3125 L 2.328125 -5.296875 C 2.566406 -5.628906 2.863281 -5.898438 3.21875 -6.109375 C 3.582031 -6.316406 3.976562 -6.421875 4.40625 -6.421875 C 4.894531 -6.421875 5.34375 -6.300781 5.75 -6.0625 C 6.15625 -5.820312 6.484375 -5.476562 6.734375 -5.03125 C 6.992188 -4.582031 7.125 -4.039062 7.125 -3.40625 C 7.125 -2.71875 6.957031 -2.109375 6.625 -1.578125 C 6.300781 -1.046875 5.863281 -0.628906 5.3125 -0.328125 C 4.769531 -0.0234375 4.164062 0.125 3.5 0.125 C 3.082031 0.125 2.664062 0.078125 2.25 -0.015625 C 1.832031 -0.117188 1.46875 -0.242188 1.15625 -0.390625 Z M 3.828125 -0.625 C 4.398438 -0.625 4.875 -0.84375 5.25 -1.28125 C 5.625 -1.71875 5.816406 -2.34375 5.828125 -3.15625 C 5.847656 -3.9375 5.664062 -4.515625 5.28125 -4.890625 C 4.894531 -5.265625 4.425781 -5.453125 3.875 -5.453125 C 3.582031 -5.453125 3.296875 -5.382812 3.015625 -5.25 C 2.742188 -5.113281 2.503906 -4.910156 2.296875 -4.640625 L 2.296875 -1.078125 C 2.503906 -0.941406 2.726562 -0.832031 2.96875 -0.75 C 3.21875 -0.664062 3.503906 -0.625 3.828125 -0.625 Z M 3.828125 -0.625 "/></g></g></g><g fill="#ffffff" fill-opacity="1"><g transform="translate(164.575763, 225.869649)"><g><path d="M 3.203125 0.0625 L 0.625 -5.546875 L -0.0625 -5.765625 L -0.015625 -6.296875 L 2.828125 -6.296875 L 2.859375 -5.765625 L 1.953125 -5.546875 L 3.9375 -1.09375 Z M 6.953125 -6.296875 L 7 -5.765625 L 6.3125 -5.546875 L 3.828125 -0.328125 L 2.65625 2.109375 C 2.4375 2.554688 2.207031 2.875 1.96875 3.0625 C 1.726562 3.25 1.453125 3.34375 1.140625 3.34375 C 0.910156 3.34375 0.71875 3.28125 0.5625 3.15625 C 0.40625 3.039062 0.328125 2.890625 0.328125 2.703125 C 0.328125 2.554688 0.382812 2.421875 0.5 2.296875 C 0.613281 2.171875 0.796875 2.070312 1.046875 2 L 2.40625 1.578125 L 1.734375 2.3125 L 3.359375 -0.828125 L 3.515625 -1.078125 L 5.421875 -5.546875 L 4.515625 -5.765625 L 4.546875 -6.296875 Z M 6.953125 -6.296875 "/></g></g></g><g fill="#ffffff" fill-opacity="1"><g transform="translate(177.049396, 225.869649)"><g/></g></g><g fill="#ffffff" fill-opacity="1"><g transform="translate(185.424671, 225.869649)"><g><path d="M 1.546875 -0.765625 C 1.566406 -0.828125 1.585938 -1.050781 1.609375 -1.4375 C 1.628906 -1.832031 1.640625 -2.328125 1.640625 -2.921875 L 1.640625 -5.671875 C 1.640625 -6.316406 1.628906 -6.832031 1.609375 -7.21875 C 1.585938 -7.601562 1.566406 -7.820312 1.546875 -7.875 L 0.65625 -8.03125 L 0.6875 -8.59375 L 4.171875 -8.59375 C 5.117188 -8.59375 5.84375 -8.414062 6.34375 -8.0625 C 6.84375 -7.71875 7.09375 -7.207031 7.09375 -6.53125 C 7.09375 -6 6.878906 -5.546875 6.453125 -5.171875 C 6.023438 -4.796875 5.476562 -4.585938 4.8125 -4.546875 L 4.640625 -4.640625 C 5.578125 -4.609375 6.289062 -4.40625 6.78125 -4.03125 C 7.28125 -3.65625 7.53125 -3.132812 7.53125 -2.46875 C 7.53125 -1.71875 7.203125 -1.117188 6.546875 -0.671875 C 5.890625 -0.222656 5 0 3.875 0 L 0.6875 0 L 0.65625 -0.5625 Z M 2.875 -2.59375 C 2.875 -2.164062 2.878906 -1.773438 2.890625 -1.421875 C 2.898438 -1.078125 2.910156 -0.863281 2.921875 -0.78125 C 3.046875 -0.757812 3.210938 -0.734375 3.421875 -0.703125 C 3.640625 -0.679688 3.8125 -0.671875 3.9375 -0.671875 C 4.6875 -0.671875 5.25 -0.804688 5.625 -1.078125 C 6.007812 -1.359375 6.203125 -1.773438 6.203125 -2.328125 C 6.203125 -2.898438 6.003906 -3.332031 5.609375 -3.625 C 5.210938 -3.914062 4.617188 -4.0625 3.828125 -4.0625 C 3.453125 -4.0625 3.191406 -4.0625 3.046875 -4.0625 C 2.910156 -4.0625 2.789062 -4.050781 2.6875 -4.03125 L 2.6875 -4.796875 C 2.863281 -4.785156 3.035156 -4.773438 3.203125 -4.765625 C 3.367188 -4.765625 3.550781 -4.765625 3.75 -4.765625 C 4.394531 -4.765625 4.890625 -4.90625 5.234375 -5.1875 C 5.578125 -5.46875 5.75 -5.867188 5.75 -6.390625 C 5.75 -6.898438 5.585938 -7.285156 5.265625 -7.546875 C 4.953125 -7.816406 4.488281 -7.953125 3.875 -7.953125 L 2.90625 -7.953125 C 2.894531 -7.890625 2.882812 -7.671875 2.875 -7.296875 C 2.875 -6.921875 2.875 -6.503906 2.875 -6.046875 Z M 2.875 -2.59375 "/></g></g></g><g fill="#ffffff" fill-opacity="1"><g transform="translate(199.18636, 225.869649)"><g><path d="M 3.640625 0.125 C 3.066406 0.125 2.550781 0 2.09375 -0.25 C 1.632812 -0.507812 1.269531 -0.875 1 -1.34375 C 0.738281 -1.820312 0.609375 -2.382812 0.609375 -3.03125 C 0.609375 -3.726562 0.75 -4.328125 1.03125 -4.828125 C 1.320312 -5.335938 1.695312 -5.734375 2.15625 -6.015625 C 2.613281 -6.296875 3.109375 -6.429688 3.640625 -6.421875 C 4.398438 -6.410156 4.992188 -6.15625 5.421875 -5.65625 C 5.847656 -5.164062 6.0625 -4.460938 6.0625 -3.546875 L 6.0625 -3.28125 L 1.5625 -3.28125 L 1.5625 -3.921875 L 5.09375 -3.921875 L 4.9375 -3.734375 L 4.9375 -4.046875 C 4.9375 -4.597656 4.8125 -5.023438 4.5625 -5.328125 C 4.3125 -5.640625 3.960938 -5.796875 3.515625 -5.796875 C 3.242188 -5.796875 2.976562 -5.710938 2.71875 -5.546875 C 2.46875 -5.390625 2.265625 -5.148438 2.109375 -4.828125 C 1.953125 -4.503906 1.875 -4.09375 1.875 -3.59375 L 1.875 -3.40625 C 1.875 -2.613281 2.070312 -1.988281 2.46875 -1.53125 C 2.863281 -1.082031 3.375 -0.859375 4 -0.859375 C 4.351562 -0.859375 4.660156 -0.925781 4.921875 -1.0625 C 5.191406 -1.195312 5.457031 -1.421875 5.71875 -1.734375 L 6.078125 -1.390625 C 5.804688 -0.878906 5.457031 -0.5 5.03125 -0.25 C 4.613281 0 4.148438 0.125 3.640625 0.125 Z M 3.640625 0.125 "/></g></g></g><g fill="#ffffff" fill-opacity="1"><g transform="translate(211.337982, 225.869649)"><g><path d="M 0.453125 0 L 0.421875 -0.53125 L 1.328125 -0.75 C 1.335938 -0.8125 1.34375 -0.898438 1.34375 -1.015625 C 1.351562 -1.140625 1.363281 -1.300781 1.375 -1.5 C 1.382812 -1.707031 1.390625 -1.976562 1.390625 -2.3125 L 1.40625 -3.4375 C 1.40625 -3.757812 1.390625 -4.082031 1.359375 -4.40625 C 1.335938 -4.726562 1.316406 -4.976562 1.296875 -5.15625 L 0.359375 -5.359375 L 0.359375 -5.84375 L 2.3125 -6.390625 L 2.5625 -6.15625 L 2.484375 -5.375 L 2.53125 -5.359375 C 2.875 -5.734375 3.210938 -6.003906 3.546875 -6.171875 C 3.878906 -6.335938 4.238281 -6.421875 4.625 -6.421875 C 4.988281 -6.421875 5.328125 -6.328125 5.640625 -6.140625 C 5.960938 -5.960938 6.222656 -5.6875 6.421875 -5.3125 C 6.617188 -4.9375 6.71875 -4.460938 6.71875 -3.890625 L 6.71875 -2.265625 C 6.71875 -1.921875 6.722656 -1.601562 6.734375 -1.3125 C 6.753906 -1.03125 6.78125 -0.84375 6.8125 -0.75 L 7.71875 -0.53125 L 7.671875 0 L 4.734375 0 L 4.703125 -0.53125 L 5.546875 -0.75 C 5.554688 -0.820312 5.566406 -0.914062 5.578125 -1.03125 C 5.585938 -1.15625 5.59375 -1.304688 5.59375 -1.484375 C 5.601562 -1.671875 5.609375 -1.898438 5.609375 -2.171875 L 5.609375 -3.75 C 5.609375 -4.1875 5.53125 -4.535156 5.375 -4.796875 C 5.226562 -5.054688 5.039062 -5.238281 4.8125 -5.34375 C 4.59375 -5.457031 4.363281 -5.515625 4.125 -5.515625 C 3.800781 -5.515625 3.503906 -5.4375 3.234375 -5.28125 C 2.960938 -5.125 2.722656 -4.898438 2.515625 -4.609375 L 2.515625 -2.421875 C 2.515625 -1.960938 2.519531 -1.59375 2.53125 -1.3125 C 2.550781 -1.039062 2.570312 -0.851562 2.59375 -0.75 L 3.5 -0.53125 L 3.453125 0 Z M 0.453125 0 "/></g></g></g><g fill="#ffffff" fill-opacity="1"><g transform="translate(224.953303, 225.869649)"><g><path d="M 3.765625 0.125 C 3.128906 0.125 2.570312 -0.0078125 2.09375 -0.28125 C 1.625 -0.5625 1.253906 -0.945312 0.984375 -1.4375 C 0.722656 -1.9375 0.59375 -2.503906 0.59375 -3.140625 C 0.59375 -3.796875 0.738281 -4.367188 1.03125 -4.859375 C 1.320312 -5.347656 1.710938 -5.726562 2.203125 -6 C 2.691406 -6.28125 3.234375 -6.421875 3.828125 -6.421875 C 4.429688 -6.421875 4.957031 -6.285156 5.40625 -6.015625 C 5.851562 -5.742188 6.203125 -5.363281 6.453125 -4.875 C 6.710938 -4.394531 6.84375 -3.832031 6.84375 -3.1875 C 6.84375 -2.570312 6.703125 -2.015625 6.421875 -1.515625 C 6.148438 -1.015625 5.78125 -0.613281 5.3125 -0.3125 C 4.851562 -0.0195312 4.335938 0.125 3.765625 0.125 Z M 3.90625 -0.578125 C 4.238281 -0.578125 4.523438 -0.675781 4.765625 -0.875 C 5.015625 -1.070312 5.207031 -1.347656 5.34375 -1.703125 C 5.476562 -2.054688 5.546875 -2.46875 5.546875 -2.9375 C 5.546875 -3.769531 5.375 -4.445312 5.03125 -4.96875 C 4.6875 -5.488281 4.226562 -5.75 3.65625 -5.75 C 3.132812 -5.75 2.710938 -5.53125 2.390625 -5.09375 C 2.078125 -4.664062 1.921875 -4.085938 1.921875 -3.359375 C 1.921875 -2.804688 2.003906 -2.320312 2.171875 -1.90625 C 2.347656 -1.488281 2.585938 -1.160156 2.890625 -0.921875 C 3.191406 -0.691406 3.53125 -0.578125 3.90625 -0.578125 Z M 3.90625 -0.578125 "/></g></g></g><g fill="#ffffff" fill-opacity="1"><g transform="translate(237.95387, 225.869649)"><g><path d="M 3.21875 0.0625 L 0.625 -5.546875 L -0.0625 -5.765625 L -0.03125 -6.296875 L 2.828125 -6.296875 L 2.859375 -5.765625 L 1.953125 -5.546875 L 3.953125 -1.09375 L 3.578125 -1.078125 L 5.421875 -5.546875 L 4.515625 -5.765625 L 4.546875 -6.296875 L 6.96875 -6.296875 L 7 -5.765625 L 6.3125 -5.546875 L 3.65625 0.0625 Z M 3.21875 0.0625 "/></g></g></g><g fill="#ffffff" fill-opacity="1"><g transform="translate(250.427506, 225.869649)"><g><path d="M 2.875 0.125 C 2.507812 0.125 2.144531 0.0820312 1.78125 0 C 1.425781 -0.0820312 1.117188 -0.195312 0.859375 -0.34375 L 0.796875 -1.90625 L 1.515625 -1.90625 L 1.796875 -0.84375 C 2.117188 -0.613281 2.507812 -0.5 2.96875 -0.5 C 3.289062 -0.5 3.554688 -0.578125 3.765625 -0.734375 C 3.984375 -0.898438 4.09375 -1.117188 4.09375 -1.390625 C 4.09375 -1.648438 4 -1.875 3.8125 -2.0625 C 3.625 -2.25 3.257812 -2.457031 2.71875 -2.6875 C 2.03125 -2.988281 1.539062 -3.28125 1.25 -3.5625 C 0.96875 -3.84375 0.828125 -4.195312 0.828125 -4.625 C 0.828125 -4.976562 0.929688 -5.289062 1.140625 -5.5625 C 1.359375 -5.832031 1.648438 -6.039062 2.015625 -6.1875 C 2.390625 -6.34375 2.820312 -6.421875 3.3125 -6.421875 C 3.582031 -6.421875 3.859375 -6.394531 4.140625 -6.34375 C 4.429688 -6.300781 4.664062 -6.238281 4.84375 -6.15625 L 5.015625 -4.625 L 4.328125 -4.625 L 3.96875 -5.625 C 3.875 -5.6875 3.753906 -5.734375 3.609375 -5.765625 C 3.472656 -5.796875 3.328125 -5.8125 3.171875 -5.8125 C 2.835938 -5.8125 2.566406 -5.726562 2.359375 -5.5625 C 2.148438 -5.40625 2.046875 -5.203125 2.046875 -4.953125 C 2.046875 -4.660156 2.15625 -4.421875 2.375 -4.234375 C 2.601562 -4.054688 3.003906 -3.835938 3.578125 -3.578125 C 4.222656 -3.285156 4.671875 -2.992188 4.921875 -2.703125 C 5.171875 -2.421875 5.296875 -2.082031 5.296875 -1.6875 C 5.296875 -1.15625 5.066406 -0.71875 4.609375 -0.375 C 4.148438 -0.0390625 3.570312 0.125 2.875 0.125 Z M 2.875 0.125 "/></g></g></g><g fill="#ffffff" fill-opacity="1"><g transform="translate(261.876552, 225.869649)"><g><path d="M 0.453125 0 L 0.421875 -0.53125 L 1.328125 -0.75 C 1.347656 -0.851562 1.359375 -1.015625 1.359375 -1.234375 C 1.367188 -1.453125 1.378906 -1.75 1.390625 -2.125 C 1.398438 -2.5 1.40625 -2.953125 1.40625 -3.484375 L 1.40625 -5.3125 C 1.40625 -5.644531 1.398438 -6 1.390625 -6.375 C 1.390625 -6.757812 1.382812 -7.128906 1.375 -7.484375 C 1.375 -7.847656 1.367188 -8.160156 1.359375 -8.421875 C 1.347656 -8.691406 1.34375 -8.867188 1.34375 -8.953125 L 0.265625 -9.09375 L 0.234375 -9.5625 L 2.296875 -10.171875 L 2.578125 -9.96875 C 2.566406 -9.65625 2.554688 -9.347656 2.546875 -9.046875 C 2.535156 -8.742188 2.523438 -8.414062 2.515625 -8.0625 C 2.515625 -7.71875 2.507812 -7.328125 2.5 -6.890625 C 2.5 -6.453125 2.5 -5.945312 2.5 -5.375 L 2.546875 -5.359375 C 2.878906 -5.734375 3.210938 -6.003906 3.546875 -6.171875 C 3.878906 -6.335938 4.238281 -6.421875 4.625 -6.421875 C 4.988281 -6.421875 5.328125 -6.328125 5.640625 -6.140625 C 5.960938 -5.953125 6.222656 -5.671875 6.421875 -5.296875 C 6.617188 -4.921875 6.71875 -4.441406 6.71875 -3.859375 L 6.71875 -2.265625 C 6.71875 -1.921875 6.726562 -1.609375 6.75 -1.328125 C 6.769531 -1.046875 6.789062 -0.851562 6.8125 -0.75 L 7.71875 -0.53125 L 7.6875 0 L 4.75 0 L 4.703125 -0.53125 L 5.546875 -0.75 C 5.554688 -0.820312 5.566406 -0.914062 5.578125 -1.03125 C 5.585938 -1.15625 5.59375 -1.304688 5.59375 -1.484375 C 5.601562 -1.671875 5.609375 -1.898438 5.609375 -2.171875 L 5.609375 -3.75 C 5.609375 -4.164062 5.535156 -4.503906 5.390625 -4.765625 C 5.253906 -5.023438 5.070312 -5.210938 4.84375 -5.328125 C 4.625 -5.453125 4.382812 -5.515625 4.125 -5.515625 C 3.800781 -5.515625 3.503906 -5.4375 3.234375 -5.28125 C 2.960938 -5.125 2.722656 -4.898438 2.515625 -4.609375 L 2.515625 -2.421875 C 2.515625 -1.972656 2.519531 -1.597656 2.53125 -1.296875 C 2.550781 -1.003906 2.570312 -0.820312 2.59375 -0.75 L 3.484375 -0.53125 L 3.453125 0 Z M 0.453125 0 "/></g></g></g><g fill="#ffffff" fill-opacity="1"><g transform="translate(275.491874, 225.869649)"><g><path d="M 3.640625 0.125 C 3.066406 0.125 2.550781 0 2.09375 -0.25 C 1.632812 -0.507812 1.269531 -0.875 1 -1.34375 C 0.738281 -1.820312 0.609375 -2.382812 0.609375 -3.03125 C 0.609375 -3.726562 0.75 -4.328125 1.03125 -4.828125 C 1.320312 -5.335938 1.695312 -5.734375 2.15625 -6.015625 C 2.613281 -6.296875 3.109375 -6.429688 3.640625 -6.421875 C 4.398438 -6.410156 4.992188 -6.15625 5.421875 -5.65625 C 5.847656 -5.164062 6.0625 -4.460938 6.0625 -3.546875 L 6.0625 -3.28125 L 1.5625 -3.28125 L 1.5625 -3.921875 L 5.09375 -3.921875 L 4.9375 -3.734375 L 4.9375 -4.046875 C 4.9375 -4.597656 4.8125 -5.023438 4.5625 -5.328125 C 4.3125 -5.640625 3.960938 -5.796875 3.515625 -5.796875 C 3.242188 -5.796875 2.976562 -5.710938 2.71875 -5.546875 C 2.46875 -5.390625 2.265625 -5.148438 2.109375 -4.828125 C 1.953125 -4.503906 1.875 -4.09375 1.875 -3.59375 L 1.875 -3.40625 C 1.875 -2.613281 2.070312 -1.988281 2.46875 -1.53125 C 2.863281 -1.082031 3.375 -0.859375 4 -0.859375 C 4.351562 -0.859375 4.660156 -0.925781 4.921875 -1.0625 C 5.191406 -1.195312 5.457031 -1.421875 5.71875 -1.734375 L 6.078125 -1.390625 C 5.804688 -0.878906 5.457031 -0.5 5.03125 -0.25 C 4.613281 0 4.148438 0.125 3.640625 0.125 Z M 3.640625 0.125 "/></g></g></g></svg>