<svg xmlns="http://www.w3.org/2000/svg" xmlns:xlink="http://www.w3.org/1999/xlink" width="500" zoomAndPan="magnify" viewBox="0 0 375 374.999991" height="500" preserveAspectRatio="xMidYMid meet" version="1.0"><defs><g/></defs><g fill="#efd9cf" fill-opacity="1"><g transform="translate(7.774579, 236.881933)"><g><path d="M 93.253906 -3.753906 C 84.535156 -1.574219 104.761719 -46.507812 109.242188 -70.121094 C 113.480469 -93.738281 96.402344 -88.652344 82.234375 -66.246094 C 74.117188 -53.894531 66.730469 -36.695312 63.097656 -32.578125 C 61.523438 -39.117188 80.539062 -82.476562 83.324219 -106.820312 C 85.140625 -124.742188 72.542969 -125.710938 53.53125 -98.460938 C 32.699219 -68.667969 12.109375 -18.167969 4.359375 -5.328125 C 4.964844 -15.988281 26.160156 -77.390625 32.699219 -84.535156 C 33.546875 -84.777344 34.394531 -85.382812 34.636719 -86.230469 C 35.484375 -88.289062 32.09375 -89.136719 29.671875 -85.261719 C 21.074219 -71.453125 2.058594 -20.589844 0.605469 -5.207031 C 0 1.210938 3.632812 3.027344 9.082031 -7.023438 C 18.289062 -23.980469 37.785156 -70.96875 56.074219 -97.492188 C 70 -117.960938 82.71875 -123.894531 80.175781 -106.214844 C 77.390625 -86.230469 59.585938 -42.507812 60.070312 -32.214844 C 60.3125 -28.945312 62.734375 -28.21875 66.003906 -32.457031 C 69.636719 -37.300781 77.511719 -53.410156 85.261719 -65.277344 C 100.398438 -88.289062 109.726562 -86.835938 106.214844 -69.757812 C 101.851562 -49.171875 77.269531 2.785156 92.285156 0 C 94.949219 -0.484375 95.917969 -4.359375 93.253906 -3.753906 Z M 93.253906 -3.753906 "/></g></g><g transform="translate(128.157529, 236.881933)"><g><path d="M 38.511719 -53.773438 C 31.367188 -46.75 22.648438 -38.269531 14.046875 -33.667969 C 1.089844 -26.644531 -9.082031 -31.125 -2.300781 -45.660156 C 2.542969 -45.78125 8.113281 -46.871094 12.59375 -50.261719 C 20.226562 -55.953125 18.773438 -63.824219 11.382812 -61.765625 C 5.207031 -60.070312 -2.421875 -53.53125 -6.175781 -43.960938 C -12.59375 -27.613281 -0.484375 -22.164062 14.894531 -31.003906 C 24.222656 -36.210938 32.578125 -45.054688 39.722656 -52.925781 C 40.691406 -53.894531 39.480469 -54.742188 38.511719 -53.773438 Z M 11.140625 -58.738281 C 15.261719 -59.707031 15.019531 -55.589844 11.019531 -52.683594 C 7.75 -50.140625 3.269531 -49.414062 -0.242188 -49.292969 C 3.269531 -54.621094 8.113281 -57.890625 11.140625 -58.738281 Z M 11.140625 -58.738281 "/></g></g><g transform="translate(166.064836, 236.881933)"><g><path d="M 35.242188 -54.136719 C 30.519531 -48.082031 23.980469 -40.328125 17.925781 -35.363281 C 6.054688 -25.796875 -3.632812 -29.308594 1.695312 -50.988281 C 3.269531 -51.957031 12.59375 -60.070312 20.710938 -70.121094 C 52.199219 -109.605469 29.671875 -117.234375 7.628906 -75.453125 C 3.875 -68.183594 0.726562 -60.675781 -1.332031 -53.289062 C -9.324219 -24.222656 5.449219 -21.195312 19.5 -33.546875 C 25.796875 -39.117188 31.851562 -46.75 36.695312 -53.410156 C 37.542969 -54.5 36.089844 -55.226562 35.242188 -54.136719 Z M 11.019531 -74.96875 C 30.398438 -113.601562 46.265625 -104.882812 18.53125 -71.332031 C 13.925781 -65.761719 8.71875 -60.554688 3.148438 -55.953125 C 5.207031 -62.25 7.871094 -68.667969 11.019531 -74.96875 Z M 11.019531 -74.96875 "/></g></g><g transform="translate(200.581075, 236.881933)"><g><path d="M 32.820312 -53.773438 C 27.007812 -47.113281 19.863281 -38.511719 12.59375 -33.789062 C 4.964844 -28.945312 -3.148438 -28.703125 -2.785156 -37.664062 C -2.664062 -42.871094 -0.363281 -47.597656 3.148438 -52.804688 C 4.84375 -55.105469 1.695312 -56.316406 0.121094 -54.015625 C -3.390625 -48.929688 -5.933594 -42.507812 -6.296875 -36.695312 C -6.78125 -24.828125 3.511719 -24.222656 13.804688 -31.246094 C 21.679688 -36.574219 28.582031 -45.660156 34.273438 -52.925781 C 35.121094 -54.015625 33.789062 -54.742188 32.820312 -53.773438 Z M 7.265625 -60.917969 C 7.265625 -60.917969 7.265625 -60.917969 7.386719 -60.917969 C 7.265625 -60.917969 7.265625 -60.917969 7.265625 -60.917969 Z M 7.628906 -61.160156 C 7.75 -61.28125 9.6875 -61.886719 9.808594 -63.824219 C 9.808594 -65.035156 8.71875 -65.640625 7.386719 -65.277344 C 5.449219 -64.550781 4.480469 -62.855469 3.753906 -61.039062 C 3.390625 -59.949219 3.027344 -58.859375 3.027344 -57.769531 C 3.027344 -56.800781 4.359375 -56.921875 4.84375 -57.890625 C 5.449219 -58.738281 6.175781 -60.070312 7.628906 -61.160156 Z M 7.628906 -61.160156 "/></g></g><g transform="translate(232.91734, 236.881933)"><g><path d="M 43.234375 -53.894531 C 32.941406 -45.296875 24.949219 -40.085938 13.078125 -39.238281 C 14.167969 -41.417969 14.894531 -43.597656 15.503906 -45.78125 C 20.226562 -67.457031 -5.570312 -58.253906 -5.933594 -43.960938 C -7.144531 -41.539062 -7.992188 -38.996094 -8.355469 -36.574219 C -9.929688 -24.34375 3.027344 -23.375 11.140625 -35.605469 C 24.101562 -36.695312 33.304688 -42.265625 44.324219 -52.804688 C 45.296875 -53.773438 44.324219 -54.742188 43.234375 -53.894531 Z M 12.59375 -45.417969 C 12.109375 -43.355469 11.382812 -41.175781 10.292969 -39.117188 C 4.964844 -39.117188 -1.453125 -39.84375 -1.816406 -44.8125 C -0.605469 -47.113281 1.574219 -49.898438 3.996094 -51.109375 C 5.570312 -51.957031 6.175781 -53.773438 4.964844 -54.378906 C 9.6875 -56.4375 14.167969 -53.53125 12.59375 -45.417969 Z M -4.117188 -38.996094 C -1.574219 -36.089844 3.269531 -35.363281 7.992188 -35.484375 C 1.453125 -26.886719 -6.296875 -29.671875 -4.117188 -38.996094 Z M -4.117188 -38.996094 "/></g></g><g transform="translate(274.700154, 236.881933)"><g><path d="M 43.960938 -53.773438 C 38.390625 -48.203125 31.972656 -41.902344 25.675781 -37.179688 C 14.289062 -28.824219 3.027344 -27.007812 5.085938 -38.390625 C 5.8125 -42.023438 7.75 -46.75 11.140625 -51.957031 C 13.078125 -54.5 12.472656 -55.589844 9.929688 -55.226562 C 8.71875 -54.984375 7.023438 -54.621094 5.328125 -54.5 C 1.574219 -54.257812 1.9375 -55.589844 4.480469 -58.496094 C 6.660156 -60.796875 3.511719 -62.007812 1.695312 -59.949219 C -3.148438 -54.136719 -2.542969 -50.503906 4.238281 -50.988281 C 5.449219 -51.109375 6.296875 -51.230469 7.265625 -51.351562 C 4.722656 -47.113281 2.664062 -42.386719 1.695312 -37.90625 C -1.089844 -23.132812 12.714844 -23.859375 27.128906 -35.121094 C 34.152344 -40.691406 39.84375 -46.992188 45.175781 -52.925781 C 46.144531 -53.894531 44.933594 -54.742188 43.960938 -53.773438 Z M 43.960938 -53.773438 "/></g></g></g><g fill="#efd9cf" fill-opacity="1"><g transform="translate(317.694022, 236.881933)"><g><path d="M 50.140625 -53.773438 C 44.933594 -48.203125 37.179688 -39.722656 28.21875 -34.152344 C 19.621094 -28.703125 11.625 -28.339844 13.5625 -38.148438 C 14.53125 -42.507812 16.472656 -46.75 17.441406 -50.625 C 18.773438 -55.953125 15.503906 -56.558594 11.382812 -51.351562 C 8.839844 -47.839844 6.660156 -43.960938 3.753906 -39.480469 C -1.453125 -31.851562 -7.144531 -26.644531 -6.539062 -33.789062 C -5.933594 -41.175781 2.058594 -57.648438 6.417969 -51.835938 C 7.628906 -50.261719 11.140625 -53.046875 9.929688 -54.621094 C 2.90625 -63.945312 -8.960938 -42.871094 -10.414062 -32.941406 C -11.382812 -24.222656 -2.785156 -23.375 6.417969 -38.753906 C 8.71875 -42.628906 11.625 -48.082031 13.320312 -50.625 C 15.382812 -53.894531 15.988281 -52.683594 15.140625 -50.382812 C 13.925781 -47.355469 11.503906 -42.386719 10.292969 -37.664062 C 6.902344 -24.949219 17.683594 -23.859375 29.429688 -31.609375 C 37.421875 -36.816406 45.539062 -45.539062 51.472656 -52.925781 C 52.320312 -54.015625 51.109375 -54.742188 50.140625 -53.773438 Z M 50.140625 -53.773438 "/></g></g></g></svg>