<svg xmlns="http://www.w3.org/2000/svg" xmlns:xlink="http://www.w3.org/1999/xlink" width="500" zoomAndPan="magnify" viewBox="0 0 375 374.999991" height="500" preserveAspectRatio="xMidYMid meet" version="1.0"><defs><g/></defs><rect x="-37.5" width="450" fill="#ffffff" y="-37.499999" height="449.999989" fill-opacity="1"/><rect x="-37.5" width="450" fill="#ffffff" y="-37.499999" height="449.999989" fill-opacity="1"/><rect x="-37.5" width="450" fill="#ffffff" y="-37.499999" height="449.999989" fill-opacity="1"/><path fill="#000000" d="M 103.308594 142.410156 C 99.386719 143.410156 95.1875 145.1875 92.460938 147.488281 C 89.503906 149.980469 88.261719 152.398438 88.035156 154.480469 C 87.800781 156.667969 88.667969 158.523438 89.992188 159.824219 C 95.222656 164.9375 103.96875 164.910156 111.054688 161.160156 C 115.429688 158.847656 118.855469 156.648438 121.519531 154.609375 C 120.765625 156.628906 119.664062 158.644531 118.148438 160.632812 C 112.128906 168.519531 103.699219 172.546875 95.757812 174.550781 C 83.785156 177.574219 72.902344 176.003906 72.902344 176.003906 C 72.523438 175.949219 72.167969 176.210938 72.113281 176.589844 C 72.058594 176.96875 72.320312 177.320312 72.703125 177.375 C 72.703125 177.375 83.839844 178.992188 96.101562 175.898438 C 104.316406 173.820312 113.027344 169.632812 119.257812 161.46875 C 121.386719 158.683594 122.746094 155.835938 123.5 153.003906 C 125.011719 151.703125 126.210938 150.472656 127.144531 149.332031 C 128.386719 147.816406 129.171875 146.441406 129.628906 145.238281 C 129.71875 145.203125 129.8125 145.164062 129.90625 145.121094 C 132.007812 144.175781 132.960938 142.015625 133.414062 139.25 C 134.027344 135.53125 133.777344 130.675781 135.121094 126.8125 C 137.238281 120.742188 142.269531 118.398438 145.871094 119.207031 C 146.246094 119.292969 146.621094 119.058594 146.703125 118.683594 C 146.789062 118.3125 146.554688 117.941406 146.179688 117.855469 C 142.074219 116.929688 136.21875 119.4375 133.804688 126.359375 C 132.4375 130.296875 132.664062 135.234375 132.042969 139.023438 C 131.734375 140.886719 131.242188 142.464844 130.109375 143.382812 C 130.363281 141.390625 129.621094 140.058594 128.734375 139.480469 C 128.265625 139.175781 127.742188 139.0625 127.238281 139.132812 C 125.175781 139.429688 124.542969 141.480469 125.164062 143.21875 C 125.519531 144.222656 126.296875 145.089844 127.382812 145.390625 C 127.578125 145.445312 127.785156 145.484375 128.003906 145.5 C 127.574219 146.394531 126.941406 147.382812 126.0625 148.457031 C 125.480469 149.167969 124.792969 149.914062 123.984375 150.691406 C 124.761719 145.65625 123.753906 140.734375 121.898438 136.359375 C 118.742188 128.925781 113.140625 123.082031 109.851562 120.949219 C 104.796875 117.664062 100.589844 116.289062 97.425781 116.273438 C 95.167969 116.265625 93.410156 116.933594 92.195312 118.082031 C 90.96875 119.242188 90.277344 120.898438 90.210938 122.910156 C 90.121094 125.734375 91.285156 129.296875 93.941406 133.074219 C 96.503906 136.71875 100 140.023438 103.308594 142.410156 Z M 122.246094 152.25 C 123.5625 146.863281 122.589844 141.554688 120.613281 136.902344 C 117.59375 129.773438 112.242188 124.15625 109.089844 122.109375 C 104.335938 119.019531 100.394531 117.675781 97.421875 117.660156 C 95.585938 117.652344 94.144531 118.15625 93.152344 119.089844 C 92.175781 120.015625 91.65625 121.347656 91.601562 122.953125 C 91.519531 125.550781 92.640625 128.804688 95.082031 132.28125 C 97.816406 136.175781 101.65625 139.683594 105.109375 142.003906 C 106.898438 141.648438 108.566406 141.476562 109.925781 141.515625 C 111.257812 141.550781 112.320312 141.796875 112.980469 142.214844 C 113.574219 142.589844 113.902344 143.101562 113.953125 143.722656 C 114.023438 144.609375 113.785156 145.230469 113.371094 145.640625 C 112.804688 146.207031 111.804688 146.410156 110.480469 146.121094 C 108.984375 145.796875 106.996094 144.851562 104.847656 143.460938 C 100.8125 144.324219 96.226562 146.128906 93.359375 148.546875 C 90.773438 150.730469 89.617188 152.804688 89.421875 154.628906 C 89.234375 156.351562 89.925781 157.8125 90.96875 158.832031 C 95.792969 163.550781 103.867188 163.394531 110.402344 159.9375 C 115.625 157.175781 119.464844 154.589844 122.246094 152.25 Z M 106.867188 143.101562 C 108.347656 143.953125 109.695312 144.53125 110.777344 144.765625 C 111.199219 144.859375 111.574219 144.894531 111.890625 144.855469 C 112.09375 144.832031 112.269531 144.78125 112.386719 144.660156 C 112.5625 144.488281 112.59375 144.207031 112.566406 143.835938 C 112.542969 143.5625 112.3125 143.402344 112.003906 143.261719 C 111.484375 143.035156 110.757812 142.925781 109.890625 142.898438 C 109 142.875 107.976562 142.945312 106.867188 143.101562 Z M 128.542969 144.097656 C 128.621094 143.820312 128.675781 143.558594 128.710938 143.304688 C 128.886719 142.132812 128.636719 141.265625 128.167969 140.800781 C 127.949219 140.585938 127.691406 140.46875 127.4375 140.503906 C 126.585938 140.628906 126.277344 141.371094 126.335938 142.113281 C 126.394531 142.863281 126.804688 143.648438 127.523438 143.972656 C 127.820312 144.105469 128.160156 144.152344 128.542969 144.097656 Z M 128.542969 144.097656 " fill-opacity="1" fill-rule="evenodd"/><g fill="#000000" fill-opacity="1"><g transform="translate(123.678667, 201.74776)"><g><path d="M 36.496094 -1.46875 C 33.082031 -0.617188 40.996094 -18.199219 42.75 -27.441406 C 44.410156 -36.683594 37.726562 -34.691406 32.179688 -25.925781 C 29.003906 -21.089844 26.113281 -14.359375 24.691406 -12.75 C 24.078125 -15.308594 31.519531 -32.277344 32.609375 -41.800781 C 33.320312 -48.816406 28.390625 -49.195312 20.949219 -38.53125 C 12.796875 -26.871094 4.738281 -7.109375 1.707031 -2.085938 C 1.941406 -6.257812 10.238281 -30.285156 12.796875 -33.082031 C 13.128906 -33.175781 13.460938 -33.414062 13.554688 -33.746094 C 13.886719 -34.550781 12.558594 -34.882812 11.613281 -33.367188 C 8.246094 -27.964844 0.804688 -8.058594 0.238281 -2.039062 C 0 0.472656 1.421875 1.183594 3.554688 -2.75 C 7.15625 -9.382812 14.789062 -27.773438 21.945312 -38.152344 C 27.394531 -46.164062 32.371094 -48.484375 31.375 -41.566406 C 30.285156 -33.746094 23.316406 -16.636719 23.507812 -12.605469 C 23.601562 -11.328125 24.550781 -11.042969 25.832031 -12.703125 C 27.253906 -14.597656 30.332031 -20.902344 33.367188 -25.546875 C 39.289062 -34.550781 42.941406 -33.980469 41.566406 -27.300781 C 39.859375 -19.242188 30.238281 1.089844 36.113281 0 C 37.15625 -0.191406 37.535156 -1.707031 36.496094 -1.46875 Z M 36.496094 -1.46875 "/></g></g></g><g fill="#000000" fill-opacity="1"><g transform="translate(170.784308, 201.74776)"><g><path d="M 15.070312 -21.042969 C 12.273438 -18.292969 8.863281 -14.976562 5.496094 -13.175781 C 0.425781 -10.425781 -3.554688 -12.179688 -0.902344 -17.867188 C 0.996094 -17.914062 3.175781 -18.34375 4.929688 -19.667969 C 7.914062 -21.898438 7.347656 -24.976562 4.457031 -24.171875 C 2.039062 -23.507812 -0.949219 -20.949219 -2.417969 -17.203125 C -4.929688 -10.804688 -0.191406 -8.671875 5.828125 -12.132812 C 9.480469 -14.171875 12.75 -17.632812 15.546875 -20.710938 C 15.925781 -21.089844 15.449219 -21.421875 15.070312 -21.042969 Z M 4.359375 -22.988281 C 5.972656 -23.367188 5.878906 -21.753906 4.3125 -20.617188 C 3.035156 -19.621094 1.28125 -19.335938 -0.09375 -19.289062 C 1.28125 -21.375 3.175781 -22.65625 4.359375 -22.988281 Z M 4.359375 -22.988281 "/></g></g></g><g fill="#000000" fill-opacity="1"><g transform="translate(185.617372, 201.74776)"><g><path d="M 13.792969 -21.1875 C 11.945312 -18.816406 9.382812 -15.78125 7.015625 -13.839844 C 2.371094 -10.09375 -1.421875 -11.46875 0.664062 -19.953125 C 1.28125 -20.332031 4.929688 -23.507812 8.105469 -27.441406 C 20.425781 -42.890625 11.613281 -45.878906 2.984375 -29.527344 C 1.515625 -26.683594 0.285156 -23.746094 -0.519531 -20.855469 C -3.648438 -9.480469 2.132812 -8.292969 7.628906 -13.128906 C 10.09375 -15.308594 12.464844 -18.292969 14.359375 -20.902344 C 14.691406 -21.328125 14.125 -21.613281 13.792969 -21.1875 Z M 4.3125 -29.335938 C 11.894531 -44.457031 18.105469 -41.042969 7.25 -27.914062 C 5.449219 -25.734375 3.414062 -23.699219 1.230469 -21.898438 C 2.039062 -24.359375 3.082031 -26.871094 4.3125 -29.335938 Z M 4.3125 -29.335938 "/></g></g></g><g fill="#000000" fill-opacity="1"><g transform="translate(199.123517, 201.74776)"><g><path d="M 12.84375 -21.042969 C 10.570312 -18.4375 7.773438 -15.070312 4.929688 -13.222656 C 1.941406 -11.328125 -1.230469 -11.234375 -1.089844 -14.738281 C -1.042969 -16.777344 -0.140625 -18.625 1.230469 -20.664062 C 1.894531 -21.566406 0.664062 -22.039062 0.046875 -21.136719 C -1.328125 -19.148438 -2.324219 -16.636719 -2.464844 -14.359375 C -2.652344 -9.714844 1.375 -9.480469 5.402344 -12.226562 C 8.484375 -14.3125 11.183594 -17.867188 13.414062 -20.710938 C 13.746094 -21.136719 13.222656 -21.421875 12.84375 -21.042969 Z M 2.84375 -23.839844 C 2.84375 -23.839844 2.84375 -23.839844 2.890625 -23.839844 C 2.84375 -23.839844 2.84375 -23.839844 2.84375 -23.839844 Z M 2.984375 -23.933594 C 3.035156 -23.980469 3.792969 -24.21875 3.839844 -24.976562 C 3.839844 -25.449219 3.414062 -25.6875 2.890625 -25.546875 C 2.132812 -25.261719 1.753906 -24.597656 1.46875 -23.886719 C 1.328125 -23.460938 1.183594 -23.035156 1.183594 -22.609375 C 1.183594 -22.226562 1.707031 -22.277344 1.894531 -22.65625 C 2.132812 -22.988281 2.417969 -23.507812 2.984375 -23.933594 Z M 2.984375 -23.933594 "/></g></g></g><g fill="#000000" fill-opacity="1"><g transform="translate(211.776642, 201.74776)"><g><path d="M 16.921875 -21.089844 C 12.890625 -17.726562 9.761719 -15.6875 5.117188 -15.355469 C 5.546875 -16.210938 5.828125 -17.0625 6.066406 -17.914062 C 7.914062 -26.398438 -2.179688 -22.796875 -2.324219 -17.203125 C -2.796875 -16.257812 -3.128906 -15.261719 -3.269531 -14.3125 C -3.886719 -9.527344 1.183594 -9.148438 4.359375 -13.933594 C 9.429688 -14.359375 13.035156 -16.539062 17.347656 -20.664062 C 17.726562 -21.042969 17.347656 -21.421875 16.921875 -21.089844 Z M 4.929688 -17.773438 C 4.738281 -16.96875 4.457031 -16.113281 4.027344 -15.308594 C 1.941406 -15.308594 -0.570312 -15.59375 -0.710938 -17.535156 C -0.238281 -18.4375 0.617188 -19.527344 1.5625 -20 C 2.179688 -20.332031 2.417969 -21.042969 1.941406 -21.28125 C 3.792969 -22.085938 5.546875 -20.949219 4.929688 -17.773438 Z M -1.613281 -15.261719 C -0.617188 -14.125 1.28125 -13.839844 3.128906 -13.886719 C 0.570312 -10.523438 -2.464844 -11.613281 -1.613281 -15.261719 Z M -1.613281 -15.261719 "/></g></g></g><g fill="#000000" fill-opacity="1"><g transform="translate(228.126185, 201.74776)"><g><path d="M 17.203125 -21.042969 C 15.023438 -18.863281 12.511719 -16.398438 10.046875 -14.550781 C 5.59375 -11.28125 1.183594 -10.570312 1.992188 -15.023438 C 2.273438 -16.445312 3.035156 -18.292969 4.359375 -20.332031 C 5.117188 -21.328125 4.882812 -21.753906 3.886719 -21.613281 C 3.414062 -21.515625 2.75 -21.375 2.085938 -21.328125 C 0.617188 -21.234375 0.757812 -21.753906 1.753906 -22.890625 C 2.605469 -23.792969 1.375 -24.265625 0.664062 -23.460938 C -1.230469 -21.1875 -0.996094 -19.765625 1.660156 -19.953125 C 2.132812 -20 2.464844 -20.046875 2.84375 -20.09375 C 1.847656 -18.4375 1.042969 -16.589844 0.664062 -14.835938 C -0.425781 -9.050781 4.976562 -9.335938 10.617188 -13.746094 C 13.367188 -15.925781 15.59375 -18.390625 17.679688 -20.710938 C 18.058594 -21.089844 17.582031 -21.421875 17.203125 -21.042969 Z M 17.203125 -21.042969 "/></g></g></g><g fill="#000000" fill-opacity="1"><g transform="translate(244.949628, 201.74776)"><g><path d="M 19.621094 -21.042969 C 17.582031 -18.863281 14.550781 -15.546875 11.042969 -13.367188 C 7.679688 -11.234375 4.550781 -11.089844 5.308594 -14.929688 C 5.6875 -16.636719 6.445312 -18.292969 6.824219 -19.8125 C 7.347656 -21.898438 6.066406 -22.132812 4.457031 -20.09375 C 3.460938 -18.722656 2.605469 -17.203125 1.46875 -15.449219 C -0.570312 -12.464844 -2.796875 -10.425781 -2.558594 -13.222656 C -2.324219 -16.113281 0.804688 -22.558594 2.511719 -20.285156 C 2.984375 -19.667969 4.359375 -20.757812 3.886719 -21.375 C 1.136719 -25.023438 -3.507812 -16.777344 -4.074219 -12.890625 C -4.457031 -9.480469 -1.089844 -9.148438 2.511719 -15.167969 C 3.414062 -16.683594 4.550781 -18.816406 5.214844 -19.8125 C 6.019531 -21.089844 6.257812 -20.617188 5.925781 -19.714844 C 5.449219 -18.53125 4.503906 -16.589844 4.027344 -14.738281 C 2.703125 -9.761719 6.917969 -9.335938 11.515625 -12.371094 C 14.644531 -14.40625 17.820312 -17.820312 20.144531 -20.710938 C 20.476562 -21.136719 20 -21.421875 19.621094 -21.042969 Z M 19.621094 -21.042969 "/></g></g></g><g fill="#3d3b3a" fill-opacity="1"><g transform="translate(137.312025, 224.476464)"><g><path d="M 1 -0.34375 C 1.019531 -0.632812 1.03125 -0.890625 1.03125 -1.109375 C 1.03125 -1.328125 1.03125 -1.539062 1.03125 -1.75 C 1.03125 -1.957031 1.03125 -2.179688 1.03125 -2.421875 L 1.03125 -4.609375 C 1.03125 -4.898438 1.023438 -5.210938 1.015625 -5.546875 C 1.015625 -5.878906 1.007812 -6.195312 1 -6.5 C 1 -6.8125 0.992188 -7.078125 0.984375 -7.296875 C 0.984375 -7.523438 0.984375 -7.679688 0.984375 -7.765625 L 0.046875 -7.890625 L 0.03125 -8.296875 L 1.8125 -8.8125 L 2.0625 -8.640625 C 2.050781 -8.273438 2.039062 -7.914062 2.03125 -7.5625 C 2.019531 -7.207031 2.007812 -6.796875 2 -6.328125 C 2 -5.867188 1.992188 -5.296875 1.984375 -4.609375 L 2.015625 -4.59375 C 2.222656 -4.882812 2.484375 -5.117188 2.796875 -5.296875 C 3.109375 -5.472656 3.453125 -5.5625 3.828125 -5.5625 C 4.242188 -5.5625 4.628906 -5.457031 4.984375 -5.25 C 5.335938 -5.039062 5.625 -4.742188 5.84375 -4.359375 C 6.0625 -3.972656 6.171875 -3.503906 6.171875 -2.953125 C 6.171875 -2.359375 6.023438 -1.828125 5.734375 -1.359375 C 5.453125 -0.898438 5.070312 -0.539062 4.59375 -0.28125 C 4.125 -0.0195312 3.601562 0.109375 3.03125 0.109375 C 2.664062 0.109375 2.300781 0.0664062 1.9375 -0.015625 C 1.582031 -0.109375 1.269531 -0.21875 1 -0.34375 Z M 3.3125 -0.546875 C 3.8125 -0.546875 4.222656 -0.734375 4.546875 -1.109375 C 4.878906 -1.484375 5.046875 -2.023438 5.046875 -2.734375 C 5.066406 -3.410156 4.910156 -3.910156 4.578125 -4.234375 C 4.242188 -4.554688 3.835938 -4.71875 3.359375 -4.71875 C 3.109375 -4.71875 2.863281 -4.660156 2.625 -4.546875 C 2.382812 -4.429688 2.175781 -4.257812 2 -4.03125 L 2 -0.9375 C 2.175781 -0.820312 2.367188 -0.726562 2.578125 -0.65625 C 2.785156 -0.582031 3.03125 -0.546875 3.3125 -0.546875 Z M 3.3125 -0.546875 "/></g></g></g><g fill="#3d3b3a" fill-opacity="1"><g transform="translate(148.810743, 224.476464)"><g><path d="M 2.78125 0.046875 L 0.546875 -4.8125 L -0.046875 -5 L -0.015625 -5.453125 L 2.453125 -5.453125 L 2.46875 -5 L 1.6875 -4.8125 L 3.421875 -0.953125 Z M 6.03125 -5.453125 L 6.0625 -5 L 5.46875 -4.8125 L 3.3125 -0.28125 L 2.296875 1.828125 C 2.109375 2.210938 1.910156 2.484375 1.703125 2.640625 C 1.492188 2.804688 1.253906 2.890625 0.984375 2.890625 C 0.785156 2.890625 0.617188 2.835938 0.484375 2.734375 C 0.347656 2.640625 0.28125 2.507812 0.28125 2.34375 C 0.28125 2.21875 0.328125 2.097656 0.421875 1.984375 C 0.523438 1.878906 0.6875 1.796875 0.90625 1.734375 L 2.078125 1.375 L 1.5 2 L 2.90625 -0.71875 L 3.046875 -0.9375 L 4.703125 -4.8125 L 3.90625 -5 L 3.9375 -5.453125 Z M 6.03125 -5.453125 "/></g></g></g><g fill="#3d3b3a" fill-opacity="1"><g transform="translate(159.62412, 224.476464)"><g/></g></g><g fill="#3d3b3a" fill-opacity="1"><g transform="translate(166.883876, 224.476464)"><g><path d="M 1.34375 -0.65625 C 1.363281 -0.71875 1.378906 -0.914062 1.390625 -1.25 C 1.410156 -1.59375 1.421875 -2.019531 1.421875 -2.53125 L 1.421875 -4.90625 C 1.421875 -5.46875 1.410156 -5.914062 1.390625 -6.25 C 1.378906 -6.582031 1.363281 -6.773438 1.34375 -6.828125 L 0.578125 -6.953125 L 0.59375 -7.453125 L 3.625 -7.453125 C 4.4375 -7.453125 5.054688 -7.296875 5.484375 -6.984375 C 5.921875 -6.679688 6.140625 -6.238281 6.140625 -5.65625 C 6.140625 -5.195312 5.957031 -4.804688 5.59375 -4.484375 C 5.226562 -4.160156 4.753906 -3.976562 4.171875 -3.9375 L 4.03125 -4.03125 C 4.84375 -4 5.460938 -3.820312 5.890625 -3.5 C 6.316406 -3.175781 6.53125 -2.722656 6.53125 -2.140625 C 6.53125 -1.492188 6.242188 -0.972656 5.671875 -0.578125 C 5.109375 -0.191406 4.335938 0 3.359375 0 L 0.59375 0 L 0.578125 -0.484375 Z M 2.484375 -2.25 C 2.484375 -1.875 2.488281 -1.535156 2.5 -1.234375 C 2.507812 -0.929688 2.519531 -0.742188 2.53125 -0.671875 C 2.632812 -0.648438 2.78125 -0.628906 2.96875 -0.609375 C 3.15625 -0.585938 3.304688 -0.578125 3.421875 -0.578125 C 4.066406 -0.578125 4.550781 -0.695312 4.875 -0.9375 C 5.207031 -1.175781 5.375 -1.535156 5.375 -2.015625 C 5.375 -2.515625 5.203125 -2.890625 4.859375 -3.140625 C 4.515625 -3.390625 4 -3.515625 3.3125 -3.515625 C 2.988281 -3.515625 2.765625 -3.515625 2.640625 -3.515625 C 2.523438 -3.515625 2.421875 -3.503906 2.328125 -3.484375 L 2.328125 -4.15625 C 2.484375 -4.144531 2.632812 -4.132812 2.78125 -4.125 C 2.925781 -4.125 3.082031 -4.125 3.25 -4.125 C 3.8125 -4.125 4.238281 -4.242188 4.53125 -4.484375 C 4.832031 -4.734375 4.984375 -5.082031 4.984375 -5.53125 C 4.984375 -5.976562 4.84375 -6.316406 4.5625 -6.546875 C 4.289062 -6.773438 3.890625 -6.890625 3.359375 -6.890625 L 2.515625 -6.890625 C 2.503906 -6.835938 2.492188 -6.648438 2.484375 -6.328125 C 2.484375 -6.003906 2.484375 -5.644531 2.484375 -5.25 Z M 2.484375 -2.25 "/></g></g></g><g fill="#3d3b3a" fill-opacity="1"><g transform="translate(178.814107, 224.476464)"><g><path d="M 3.15625 0.109375 C 2.65625 0.109375 2.207031 0 1.8125 -0.21875 C 1.414062 -0.445312 1.101562 -0.765625 0.875 -1.171875 C 0.644531 -1.585938 0.53125 -2.070312 0.53125 -2.625 C 0.53125 -3.226562 0.648438 -3.75 0.890625 -4.1875 C 1.140625 -4.625 1.460938 -4.960938 1.859375 -5.203125 C 2.265625 -5.453125 2.695312 -5.570312 3.15625 -5.5625 C 3.8125 -5.550781 4.320312 -5.332031 4.6875 -4.90625 C 5.0625 -4.476562 5.25 -3.867188 5.25 -3.078125 L 5.25 -2.84375 L 1.359375 -2.84375 L 1.359375 -3.40625 L 4.421875 -3.40625 L 4.28125 -3.234375 L 4.28125 -3.5 C 4.28125 -3.988281 4.171875 -4.363281 3.953125 -4.625 C 3.734375 -4.894531 3.429688 -5.03125 3.046875 -5.03125 C 2.804688 -5.03125 2.578125 -4.957031 2.359375 -4.8125 C 2.140625 -4.675781 1.960938 -4.46875 1.828125 -4.1875 C 1.691406 -3.90625 1.625 -3.546875 1.625 -3.109375 L 1.625 -2.953125 C 1.625 -2.265625 1.796875 -1.722656 2.140625 -1.328125 C 2.484375 -0.941406 2.925781 -0.75 3.46875 -0.75 C 3.769531 -0.75 4.035156 -0.804688 4.265625 -0.921875 C 4.503906 -1.035156 4.734375 -1.226562 4.953125 -1.5 L 5.265625 -1.203125 C 5.023438 -0.765625 4.722656 -0.4375 4.359375 -0.21875 C 4.003906 0 3.601562 0.109375 3.15625 0.109375 Z M 3.15625 0.109375 "/></g></g></g><g fill="#3d3b3a" fill-opacity="1"><g transform="translate(189.348272, 224.476464)"><g><path d="M 0.390625 0 L 0.375 -0.453125 L 1.15625 -0.640625 C 1.164062 -0.703125 1.171875 -0.785156 1.171875 -0.890625 C 1.179688 -0.992188 1.1875 -1.132812 1.1875 -1.3125 C 1.195312 -1.488281 1.203125 -1.71875 1.203125 -2 L 1.21875 -2.984375 C 1.21875 -3.265625 1.207031 -3.539062 1.1875 -3.8125 C 1.164062 -4.09375 1.144531 -4.3125 1.125 -4.46875 L 0.3125 -4.640625 L 0.3125 -5.0625 L 2 -5.53125 L 2.21875 -5.328125 L 2.15625 -4.65625 L 2.203125 -4.640625 C 2.492188 -4.960938 2.78125 -5.195312 3.0625 -5.34375 C 3.351562 -5.488281 3.671875 -5.5625 4.015625 -5.5625 C 4.328125 -5.5625 4.617188 -5.484375 4.890625 -5.328125 C 5.171875 -5.171875 5.394531 -4.925781 5.5625 -4.59375 C 5.738281 -4.269531 5.828125 -3.863281 5.828125 -3.375 L 5.828125 -1.96875 C 5.828125 -1.664062 5.832031 -1.390625 5.84375 -1.140625 C 5.851562 -0.898438 5.875 -0.734375 5.90625 -0.640625 L 6.6875 -0.453125 L 6.65625 0 L 4.09375 0 L 4.078125 -0.453125 L 4.8125 -0.640625 C 4.820312 -0.710938 4.828125 -0.796875 4.828125 -0.890625 C 4.835938 -0.992188 4.84375 -1.125 4.84375 -1.28125 C 4.851562 -1.445312 4.859375 -1.644531 4.859375 -1.875 L 4.859375 -3.25 C 4.859375 -3.632812 4.789062 -3.9375 4.65625 -4.15625 C 4.53125 -4.382812 4.367188 -4.546875 4.171875 -4.640625 C 3.984375 -4.734375 3.785156 -4.78125 3.578125 -4.78125 C 3.296875 -4.78125 3.035156 -4.710938 2.796875 -4.578125 C 2.566406 -4.441406 2.363281 -4.25 2.1875 -4 L 2.1875 -2.09375 C 2.1875 -1.695312 2.191406 -1.378906 2.203125 -1.140625 C 2.210938 -0.898438 2.226562 -0.734375 2.25 -0.640625 L 3.03125 -0.453125 L 3 0 Z M 0.390625 0 "/></g></g></g><g fill="#3d3b3a" fill-opacity="1"><g transform="translate(201.151588, 224.476464)"><g><path d="M 3.265625 0.109375 C 2.710938 0.109375 2.226562 -0.0078125 1.8125 -0.25 C 1.40625 -0.488281 1.085938 -0.820312 0.859375 -1.25 C 0.628906 -1.675781 0.515625 -2.164062 0.515625 -2.71875 C 0.515625 -3.289062 0.640625 -3.785156 0.890625 -4.203125 C 1.140625 -4.628906 1.476562 -4.960938 1.90625 -5.203125 C 2.332031 -5.441406 2.800781 -5.5625 3.3125 -5.5625 C 3.832031 -5.5625 4.285156 -5.441406 4.671875 -5.203125 C 5.066406 -4.972656 5.375 -4.648438 5.59375 -4.234375 C 5.8125 -3.816406 5.921875 -3.328125 5.921875 -2.765625 C 5.921875 -2.234375 5.800781 -1.75 5.5625 -1.3125 C 5.332031 -0.875 5.015625 -0.523438 4.609375 -0.265625 C 4.210938 -0.015625 3.765625 0.109375 3.265625 0.109375 Z M 3.390625 -0.5 C 3.679688 -0.5 3.929688 -0.582031 4.140625 -0.75 C 4.347656 -0.925781 4.507812 -1.164062 4.625 -1.46875 C 4.75 -1.78125 4.8125 -2.140625 4.8125 -2.546875 C 4.8125 -3.265625 4.660156 -3.847656 4.359375 -4.296875 C 4.054688 -4.753906 3.660156 -4.984375 3.171875 -4.984375 C 2.710938 -4.984375 2.34375 -4.796875 2.0625 -4.421875 C 1.789062 -4.046875 1.65625 -3.539062 1.65625 -2.90625 C 1.65625 -2.4375 1.726562 -2.019531 1.875 -1.65625 C 2.03125 -1.289062 2.238281 -1.003906 2.5 -0.796875 C 2.757812 -0.597656 3.054688 -0.5 3.390625 -0.5 Z M 3.390625 -0.5 "/></g></g></g><g fill="#3d3b3a" fill-opacity="1"><g transform="translate(212.42186, 224.476464)"><g><path d="M 2.796875 0.046875 L 0.546875 -4.8125 L -0.046875 -5 L -0.03125 -5.453125 L 2.453125 -5.453125 L 2.46875 -5 L 1.6875 -4.8125 L 3.421875 -0.953125 L 3.09375 -0.9375 L 4.703125 -4.8125 L 3.90625 -5 L 3.9375 -5.453125 L 6.046875 -5.453125 L 6.0625 -5 L 5.46875 -4.8125 L 3.171875 0.046875 Z M 2.796875 0.046875 "/></g></g></g><g fill="#3d3b3a" fill-opacity="1"><g transform="translate(223.235239, 224.476464)"><g><path d="M 2.484375 0.109375 C 2.171875 0.109375 1.859375 0.0703125 1.546875 0 C 1.234375 -0.0703125 0.96875 -0.171875 0.75 -0.296875 L 0.6875 -1.65625 L 1.3125 -1.65625 L 1.5625 -0.734375 C 1.84375 -0.535156 2.179688 -0.4375 2.578125 -0.4375 C 2.859375 -0.4375 3.085938 -0.503906 3.265625 -0.640625 C 3.453125 -0.773438 3.546875 -0.960938 3.546875 -1.203125 C 3.546875 -1.429688 3.460938 -1.625 3.296875 -1.78125 C 3.140625 -1.945312 2.828125 -2.128906 2.359375 -2.328125 C 1.753906 -2.585938 1.328125 -2.835938 1.078125 -3.078125 C 0.835938 -3.328125 0.71875 -3.640625 0.71875 -4.015625 C 0.71875 -4.316406 0.804688 -4.582031 0.984375 -4.8125 C 1.171875 -5.050781 1.425781 -5.234375 1.75 -5.359375 C 2.070312 -5.492188 2.445312 -5.5625 2.875 -5.5625 C 3.101562 -5.5625 3.34375 -5.539062 3.59375 -5.5 C 3.84375 -5.46875 4.046875 -5.410156 4.203125 -5.328125 L 4.34375 -4.015625 L 3.75 -4.015625 L 3.4375 -4.875 C 3.351562 -4.925781 3.25 -4.96875 3.125 -5 C 3.007812 -5.03125 2.882812 -5.046875 2.75 -5.046875 C 2.457031 -5.046875 2.222656 -4.972656 2.046875 -4.828125 C 1.867188 -4.691406 1.78125 -4.515625 1.78125 -4.296875 C 1.78125 -4.035156 1.875 -3.828125 2.0625 -3.671875 C 2.257812 -3.515625 2.601562 -3.320312 3.09375 -3.09375 C 3.65625 -2.84375 4.046875 -2.59375 4.265625 -2.34375 C 4.484375 -2.101562 4.59375 -1.804688 4.59375 -1.453125 C 4.59375 -1.003906 4.394531 -0.628906 4 -0.328125 C 3.601562 -0.0351562 3.097656 0.109375 2.484375 0.109375 Z M 2.484375 0.109375 "/></g></g></g><g fill="#3d3b3a" fill-opacity="1"><g transform="translate(233.160213, 224.476464)"><g><path d="M 0.390625 0 L 0.375 -0.453125 L 1.15625 -0.640625 C 1.175781 -0.734375 1.1875 -0.875 1.1875 -1.0625 C 1.1875 -1.257812 1.191406 -1.519531 1.203125 -1.84375 C 1.210938 -2.164062 1.21875 -2.554688 1.21875 -3.015625 L 1.21875 -4.609375 C 1.21875 -4.898438 1.210938 -5.207031 1.203125 -5.53125 C 1.203125 -5.863281 1.195312 -6.179688 1.1875 -6.484375 C 1.1875 -6.796875 1.179688 -7.066406 1.171875 -7.296875 C 1.171875 -7.535156 1.171875 -7.6875 1.171875 -7.75 L 0.234375 -7.890625 L 0.203125 -8.296875 L 2 -8.8125 L 2.234375 -8.640625 C 2.222656 -8.367188 2.210938 -8.101562 2.203125 -7.84375 C 2.203125 -7.582031 2.195312 -7.296875 2.1875 -6.984375 C 2.1875 -6.679688 2.179688 -6.34375 2.171875 -5.96875 C 2.171875 -5.59375 2.171875 -5.15625 2.171875 -4.65625 L 2.203125 -4.640625 C 2.492188 -4.960938 2.78125 -5.195312 3.0625 -5.34375 C 3.351562 -5.488281 3.671875 -5.5625 4.015625 -5.5625 C 4.328125 -5.5625 4.617188 -5.476562 4.890625 -5.3125 C 5.171875 -5.15625 5.394531 -4.910156 5.5625 -4.578125 C 5.738281 -4.253906 5.828125 -3.84375 5.828125 -3.34375 L 5.828125 -1.96875 C 5.828125 -1.664062 5.832031 -1.390625 5.84375 -1.140625 C 5.863281 -0.898438 5.882812 -0.734375 5.90625 -0.640625 L 6.6875 -0.453125 L 6.671875 0 L 4.109375 0 L 4.078125 -0.453125 L 4.8125 -0.640625 C 4.820312 -0.710938 4.828125 -0.796875 4.828125 -0.890625 C 4.835938 -0.992188 4.84375 -1.125 4.84375 -1.28125 C 4.851562 -1.445312 4.859375 -1.644531 4.859375 -1.875 L 4.859375 -3.25 C 4.859375 -3.613281 4.796875 -3.90625 4.671875 -4.125 C 4.554688 -4.351562 4.398438 -4.519531 4.203125 -4.625 C 4.003906 -4.726562 3.796875 -4.78125 3.578125 -4.78125 C 3.296875 -4.78125 3.035156 -4.710938 2.796875 -4.578125 C 2.566406 -4.441406 2.363281 -4.25 2.1875 -4 L 2.1875 -2.09375 C 2.1875 -1.707031 2.191406 -1.382812 2.203125 -1.125 C 2.210938 -0.875 2.226562 -0.710938 2.25 -0.640625 L 3.015625 -0.453125 L 3 0 Z M 0.390625 0 "/></g></g></g><g fill="#3d3b3a" fill-opacity="1"><g transform="translate(244.963522, 224.476464)"><g><path d="M 3.15625 0.109375 C 2.65625 0.109375 2.207031 0 1.8125 -0.21875 C 1.414062 -0.445312 1.101562 -0.765625 0.875 -1.171875 C 0.644531 -1.585938 0.53125 -2.070312 0.53125 -2.625 C 0.53125 -3.226562 0.648438 -3.75 0.890625 -4.1875 C 1.140625 -4.625 1.460938 -4.960938 1.859375 -5.203125 C 2.265625 -5.453125 2.695312 -5.570312 3.15625 -5.5625 C 3.8125 -5.550781 4.320312 -5.332031 4.6875 -4.90625 C 5.0625 -4.476562 5.25 -3.867188 5.25 -3.078125 L 5.25 -2.84375 L 1.359375 -2.84375 L 1.359375 -3.40625 L 4.421875 -3.40625 L 4.28125 -3.234375 L 4.28125 -3.5 C 4.28125 -3.988281 4.171875 -4.363281 3.953125 -4.625 C 3.734375 -4.894531 3.429688 -5.03125 3.046875 -5.03125 C 2.804688 -5.03125 2.578125 -4.957031 2.359375 -4.8125 C 2.140625 -4.675781 1.960938 -4.46875 1.828125 -4.1875 C 1.691406 -3.90625 1.625 -3.546875 1.625 -3.109375 L 1.625 -2.953125 C 1.625 -2.265625 1.796875 -1.722656 2.140625 -1.328125 C 2.484375 -0.941406 2.925781 -0.75 3.46875 -0.75 C 3.769531 -0.75 4.035156 -0.804688 4.265625 -0.921875 C 4.503906 -1.035156 4.734375 -1.226562 4.953125 -1.5 L 5.265625 -1.203125 C 5.023438 -0.765625 4.722656 -0.4375 4.359375 -0.21875 C 4.003906 0 3.601562 0.109375 3.15625 0.109375 Z M 3.15625 0.109375 "/></g></g></g></svg>